<?xml version="1.0" encoding="utf-8" standalone="no"?>
<!DOCTYPE svg PUBLIC "-//W3C//DTD SVG 1.1//EN"
  "http://www.w3.org/Graphics/SVG/1.1/DTD/svg11.dtd">
<!-- Created with matplotlib (https://matplotlib.org/) -->
<svg height="720pt" version="1.1" viewBox="0 0 1440 720" width="1440pt" xmlns="http://www.w3.org/2000/svg" xmlns:xlink="http://www.w3.org/1999/xlink">
 <metadata>
  <rdf:RDF xmlns:cc="http://creativecommons.org/ns#" xmlns:dc="http://purl.org/dc/elements/1.1/" xmlns:rdf="http://www.w3.org/1999/02/22-rdf-syntax-ns#">
   <cc:Work>
    <dc:type rdf:resource="http://purl.org/dc/dcmitype/StillImage"/>
    <dc:date>2020-08-06T04:45:41.280626</dc:date>
    <dc:format>image/svg+xml</dc:format>
    <dc:creator>
     <cc:Agent>
      <dc:title>Matplotlib v3.3.0, https://matplotlib.org/</dc:title>
     </cc:Agent>
    </dc:creator>
   </cc:Work>
  </rdf:RDF>
 </metadata>
 <defs>
  <style type="text/css">*{stroke-linecap:butt;stroke-linejoin:round;}</style>
 </defs>
 <g id="figure_1">
  <g id="patch_1">
   <path d="M 0 720 
L 1440 720 
L 1440 0 
L 0 0 
z
" style="fill:#ffffff;"/>
  </g>
  <g id="axes_1">
   <g id="patch_2">
    <path d="M 180 576 
L 1296 576 
L 1296 86.4 
L 180 86.4 
z
" style="fill:#ffffff;"/>
   </g>
   <g id="matplotlib.axis_1">
    <g id="xtick_1">
     <g id="line2d_1">
      <path clip-path="url(#p626638635e)" d="M 230.456421 576 
L 230.456421 86.4 
" style="fill:none;stroke:#b0b0b0;stroke-linecap:square;stroke-width:0.8;"/>
     </g>
     <g id="line2d_2">
      <defs>
       <path d="M 0 0 
L 0 3.5 
" id="mfcec24f238" style="stroke:#000000;stroke-width:0.8;"/>
      </defs>
      <g>
       <use style="stroke:#000000;stroke-width:0.8;" x="230.456421" xlink:href="#mfcec24f238" y="576"/>
      </g>
     </g>
     <g id="text_1">
      <!-- 06:00 -->
      <g transform="translate(204.458808 603.989815)rotate(-30)scale(0.1 -0.1)">
       <defs>
        <path d="M 31.78125 66.40625 
Q 24.171875 66.40625 20.328125 58.90625 
Q 16.5 51.421875 16.5 36.375 
Q 16.5 21.390625 20.328125 13.890625 
Q 24.171875 6.390625 31.78125 6.390625 
Q 39.453125 6.390625 43.28125 13.890625 
Q 47.125 21.390625 47.125 36.375 
Q 47.125 51.421875 43.28125 58.90625 
Q 39.453125 66.40625 31.78125 66.40625 
z
M 31.78125 74.21875 
Q 44.046875 74.21875 50.515625 64.515625 
Q 56.984375 54.828125 56.984375 36.375 
Q 56.984375 17.96875 50.515625 8.265625 
Q 44.046875 -1.421875 31.78125 -1.421875 
Q 19.53125 -1.421875 13.0625 8.265625 
Q 6.59375 17.96875 6.59375 36.375 
Q 6.59375 54.828125 13.0625 64.515625 
Q 19.53125 74.21875 31.78125 74.21875 
z
" id="DejaVuSans-48"/>
        <path d="M 33.015625 40.375 
Q 26.375 40.375 22.484375 35.828125 
Q 18.609375 31.296875 18.609375 23.390625 
Q 18.609375 15.53125 22.484375 10.953125 
Q 26.375 6.390625 33.015625 6.390625 
Q 39.65625 6.390625 43.53125 10.953125 
Q 47.40625 15.53125 47.40625 23.390625 
Q 47.40625 31.296875 43.53125 35.828125 
Q 39.65625 40.375 33.015625 40.375 
z
M 52.59375 71.296875 
L 52.59375 62.3125 
Q 48.875 64.0625 45.09375 64.984375 
Q 41.3125 65.921875 37.59375 65.921875 
Q 27.828125 65.921875 22.671875 59.328125 
Q 17.53125 52.734375 16.796875 39.40625 
Q 19.671875 43.65625 24.015625 45.921875 
Q 28.375 48.1875 33.59375 48.1875 
Q 44.578125 48.1875 50.953125 41.515625 
Q 57.328125 34.859375 57.328125 23.390625 
Q 57.328125 12.15625 50.6875 5.359375 
Q 44.046875 -1.421875 33.015625 -1.421875 
Q 20.359375 -1.421875 13.671875 8.265625 
Q 6.984375 17.96875 6.984375 36.375 
Q 6.984375 53.65625 15.1875 63.9375 
Q 23.390625 74.21875 37.203125 74.21875 
Q 40.921875 74.21875 44.703125 73.484375 
Q 48.484375 72.75 52.59375 71.296875 
z
" id="DejaVuSans-54"/>
        <path d="M 11.71875 12.40625 
L 22.015625 12.40625 
L 22.015625 0 
L 11.71875 0 
z
M 11.71875 51.703125 
L 22.015625 51.703125 
L 22.015625 39.3125 
L 11.71875 39.3125 
z
" id="DejaVuSans-58"/>
       </defs>
       <use xlink:href="#DejaVuSans-48"/>
       <use x="63.623047" xlink:href="#DejaVuSans-54"/>
       <use x="127.246094" xlink:href="#DejaVuSans-58"/>
       <use x="160.9375" xlink:href="#DejaVuSans-48"/>
       <use x="224.560547" xlink:href="#DejaVuSans-48"/>
      </g>
     </g>
    </g>
    <g id="xtick_2">
     <g id="line2d_3">
      <path clip-path="url(#p626638635e)" d="M 323.832993 576 
L 323.832993 86.4 
" style="fill:none;stroke:#b0b0b0;stroke-linecap:square;stroke-width:0.8;"/>
     </g>
     <g id="line2d_4">
      <g>
       <use style="stroke:#000000;stroke-width:0.8;" x="323.832993" xlink:href="#mfcec24f238" y="576"/>
      </g>
     </g>
     <g id="text_2">
      <!-- 06:01 -->
      <g transform="translate(297.835379 603.989815)rotate(-30)scale(0.1 -0.1)">
       <defs>
        <path d="M 12.40625 8.296875 
L 28.515625 8.296875 
L 28.515625 63.921875 
L 10.984375 60.40625 
L 10.984375 69.390625 
L 28.421875 72.90625 
L 38.28125 72.90625 
L 38.28125 8.296875 
L 54.390625 8.296875 
L 54.390625 0 
L 12.40625 0 
z
" id="DejaVuSans-49"/>
       </defs>
       <use xlink:href="#DejaVuSans-48"/>
       <use x="63.623047" xlink:href="#DejaVuSans-54"/>
       <use x="127.246094" xlink:href="#DejaVuSans-58"/>
       <use x="160.9375" xlink:href="#DejaVuSans-48"/>
       <use x="224.560547" xlink:href="#DejaVuSans-49"/>
      </g>
     </g>
    </g>
    <g id="xtick_3">
     <g id="line2d_5">
      <path clip-path="url(#p626638635e)" d="M 417.209579 576 
L 417.209579 86.4 
" style="fill:none;stroke:#b0b0b0;stroke-linecap:square;stroke-width:0.8;"/>
     </g>
     <g id="line2d_6">
      <g>
       <use style="stroke:#000000;stroke-width:0.8;" x="417.209579" xlink:href="#mfcec24f238" y="576"/>
      </g>
     </g>
     <g id="text_3">
      <!-- 06:02 -->
      <g transform="translate(391.211966 603.989815)rotate(-30)scale(0.1 -0.1)">
       <defs>
        <path d="M 19.1875 8.296875 
L 53.609375 8.296875 
L 53.609375 0 
L 7.328125 0 
L 7.328125 8.296875 
Q 12.9375 14.109375 22.625 23.890625 
Q 32.328125 33.6875 34.8125 36.53125 
Q 39.546875 41.84375 41.421875 45.53125 
Q 43.3125 49.21875 43.3125 52.78125 
Q 43.3125 58.59375 39.234375 62.25 
Q 35.15625 65.921875 28.609375 65.921875 
Q 23.96875 65.921875 18.8125 64.3125 
Q 13.671875 62.703125 7.8125 59.421875 
L 7.8125 69.390625 
Q 13.765625 71.78125 18.9375 73 
Q 24.125 74.21875 28.421875 74.21875 
Q 39.75 74.21875 46.484375 68.546875 
Q 53.21875 62.890625 53.21875 53.421875 
Q 53.21875 48.921875 51.53125 44.890625 
Q 49.859375 40.875 45.40625 35.40625 
Q 44.1875 33.984375 37.640625 27.21875 
Q 31.109375 20.453125 19.1875 8.296875 
z
" id="DejaVuSans-50"/>
       </defs>
       <use xlink:href="#DejaVuSans-48"/>
       <use x="63.623047" xlink:href="#DejaVuSans-54"/>
       <use x="127.246094" xlink:href="#DejaVuSans-58"/>
       <use x="160.9375" xlink:href="#DejaVuSans-48"/>
       <use x="224.560547" xlink:href="#DejaVuSans-50"/>
      </g>
     </g>
    </g>
    <g id="xtick_4">
     <g id="line2d_7">
      <path clip-path="url(#p626638635e)" d="M 510.586151 576 
L 510.586151 86.4 
" style="fill:none;stroke:#b0b0b0;stroke-linecap:square;stroke-width:0.8;"/>
     </g>
     <g id="line2d_8">
      <g>
       <use style="stroke:#000000;stroke-width:0.8;" x="510.586151" xlink:href="#mfcec24f238" y="576"/>
      </g>
     </g>
     <g id="text_4">
      <!-- 06:03 -->
      <g transform="translate(484.588538 603.989815)rotate(-30)scale(0.1 -0.1)">
       <defs>
        <path d="M 40.578125 39.3125 
Q 47.65625 37.796875 51.625 33 
Q 55.609375 28.21875 55.609375 21.1875 
Q 55.609375 10.40625 48.1875 4.484375 
Q 40.765625 -1.421875 27.09375 -1.421875 
Q 22.515625 -1.421875 17.65625 -0.515625 
Q 12.796875 0.390625 7.625 2.203125 
L 7.625 11.71875 
Q 11.71875 9.328125 16.59375 8.109375 
Q 21.484375 6.890625 26.8125 6.890625 
Q 36.078125 6.890625 40.9375 10.546875 
Q 45.796875 14.203125 45.796875 21.1875 
Q 45.796875 27.640625 41.28125 31.265625 
Q 36.765625 34.90625 28.71875 34.90625 
L 20.21875 34.90625 
L 20.21875 43.015625 
L 29.109375 43.015625 
Q 36.375 43.015625 40.234375 45.921875 
Q 44.09375 48.828125 44.09375 54.296875 
Q 44.09375 59.90625 40.109375 62.90625 
Q 36.140625 65.921875 28.71875 65.921875 
Q 24.65625 65.921875 20.015625 65.03125 
Q 15.375 64.15625 9.8125 62.3125 
L 9.8125 71.09375 
Q 15.4375 72.65625 20.34375 73.4375 
Q 25.25 74.21875 29.59375 74.21875 
Q 40.828125 74.21875 47.359375 69.109375 
Q 53.90625 64.015625 53.90625 55.328125 
Q 53.90625 49.265625 50.4375 45.09375 
Q 46.96875 40.921875 40.578125 39.3125 
z
" id="DejaVuSans-51"/>
       </defs>
       <use xlink:href="#DejaVuSans-48"/>
       <use x="63.623047" xlink:href="#DejaVuSans-54"/>
       <use x="127.246094" xlink:href="#DejaVuSans-58"/>
       <use x="160.9375" xlink:href="#DejaVuSans-48"/>
       <use x="224.560547" xlink:href="#DejaVuSans-51"/>
      </g>
     </g>
    </g>
    <g id="xtick_5">
     <g id="line2d_9">
      <path clip-path="url(#p626638635e)" d="M 603.962708 576 
L 603.962708 86.4 
" style="fill:none;stroke:#b0b0b0;stroke-linecap:square;stroke-width:0.8;"/>
     </g>
     <g id="line2d_10">
      <g>
       <use style="stroke:#000000;stroke-width:0.8;" x="603.962708" xlink:href="#mfcec24f238" y="576"/>
      </g>
     </g>
     <g id="text_5">
      <!-- 06:04 -->
      <g transform="translate(577.965094 603.989815)rotate(-30)scale(0.1 -0.1)">
       <defs>
        <path d="M 37.796875 64.3125 
L 12.890625 25.390625 
L 37.796875 25.390625 
z
M 35.203125 72.90625 
L 47.609375 72.90625 
L 47.609375 25.390625 
L 58.015625 25.390625 
L 58.015625 17.1875 
L 47.609375 17.1875 
L 47.609375 0 
L 37.796875 0 
L 37.796875 17.1875 
L 4.890625 17.1875 
L 4.890625 26.703125 
z
" id="DejaVuSans-52"/>
       </defs>
       <use xlink:href="#DejaVuSans-48"/>
       <use x="63.623047" xlink:href="#DejaVuSans-54"/>
       <use x="127.246094" xlink:href="#DejaVuSans-58"/>
       <use x="160.9375" xlink:href="#DejaVuSans-48"/>
       <use x="224.560547" xlink:href="#DejaVuSans-52"/>
      </g>
     </g>
    </g>
    <g id="xtick_6">
     <g id="line2d_11">
      <path clip-path="url(#p626638635e)" d="M 697.339294 576 
L 697.339294 86.4 
" style="fill:none;stroke:#b0b0b0;stroke-linecap:square;stroke-width:0.8;"/>
     </g>
     <g id="line2d_12">
      <g>
       <use style="stroke:#000000;stroke-width:0.8;" x="697.339294" xlink:href="#mfcec24f238" y="576"/>
      </g>
     </g>
     <g id="text_6">
      <!-- 06:05 -->
      <g transform="translate(671.341681 603.989815)rotate(-30)scale(0.1 -0.1)">
       <defs>
        <path d="M 10.796875 72.90625 
L 49.515625 72.90625 
L 49.515625 64.59375 
L 19.828125 64.59375 
L 19.828125 46.734375 
Q 21.96875 47.46875 24.109375 47.828125 
Q 26.265625 48.1875 28.421875 48.1875 
Q 40.625 48.1875 47.75 41.5 
Q 54.890625 34.8125 54.890625 23.390625 
Q 54.890625 11.625 47.5625 5.09375 
Q 40.234375 -1.421875 26.90625 -1.421875 
Q 22.3125 -1.421875 17.546875 -0.640625 
Q 12.796875 0.140625 7.71875 1.703125 
L 7.71875 11.625 
Q 12.109375 9.234375 16.796875 8.0625 
Q 21.484375 6.890625 26.703125 6.890625 
Q 35.15625 6.890625 40.078125 11.328125 
Q 45.015625 15.765625 45.015625 23.390625 
Q 45.015625 31 40.078125 35.4375 
Q 35.15625 39.890625 26.703125 39.890625 
Q 22.75 39.890625 18.8125 39.015625 
Q 14.890625 38.140625 10.796875 36.28125 
z
" id="DejaVuSans-53"/>
       </defs>
       <use xlink:href="#DejaVuSans-48"/>
       <use x="63.623047" xlink:href="#DejaVuSans-54"/>
       <use x="127.246094" xlink:href="#DejaVuSans-58"/>
       <use x="160.9375" xlink:href="#DejaVuSans-48"/>
       <use x="224.560547" xlink:href="#DejaVuSans-53"/>
      </g>
     </g>
    </g>
    <g id="xtick_7">
     <g id="line2d_13">
      <path clip-path="url(#p626638635e)" d="M 790.715866 576 
L 790.715866 86.4 
" style="fill:none;stroke:#b0b0b0;stroke-linecap:square;stroke-width:0.8;"/>
     </g>
     <g id="line2d_14">
      <g>
       <use style="stroke:#000000;stroke-width:0.8;" x="790.715866" xlink:href="#mfcec24f238" y="576"/>
      </g>
     </g>
     <g id="text_7">
      <!-- 06:06 -->
      <g transform="translate(764.718253 603.989815)rotate(-30)scale(0.1 -0.1)">
       <use xlink:href="#DejaVuSans-48"/>
       <use x="63.623047" xlink:href="#DejaVuSans-54"/>
       <use x="127.246094" xlink:href="#DejaVuSans-58"/>
       <use x="160.9375" xlink:href="#DejaVuSans-48"/>
       <use x="224.560547" xlink:href="#DejaVuSans-54"/>
      </g>
     </g>
    </g>
    <g id="xtick_8">
     <g id="line2d_15">
      <path clip-path="url(#p626638635e)" d="M 884.092438 576 
L 884.092438 86.4 
" style="fill:none;stroke:#b0b0b0;stroke-linecap:square;stroke-width:0.8;"/>
     </g>
     <g id="line2d_16">
      <g>
       <use style="stroke:#000000;stroke-width:0.8;" x="884.092438" xlink:href="#mfcec24f238" y="576"/>
      </g>
     </g>
     <g id="text_8">
      <!-- 06:07 -->
      <g transform="translate(858.094824 603.989815)rotate(-30)scale(0.1 -0.1)">
       <defs>
        <path d="M 8.203125 72.90625 
L 55.078125 72.90625 
L 55.078125 68.703125 
L 28.609375 0 
L 18.3125 0 
L 43.21875 64.59375 
L 8.203125 64.59375 
z
" id="DejaVuSans-55"/>
       </defs>
       <use xlink:href="#DejaVuSans-48"/>
       <use x="63.623047" xlink:href="#DejaVuSans-54"/>
       <use x="127.246094" xlink:href="#DejaVuSans-58"/>
       <use x="160.9375" xlink:href="#DejaVuSans-48"/>
       <use x="224.560547" xlink:href="#DejaVuSans-55"/>
      </g>
     </g>
    </g>
    <g id="xtick_9">
     <g id="line2d_17">
      <path clip-path="url(#p626638635e)" d="M 977.469025 576 
L 977.469025 86.4 
" style="fill:none;stroke:#b0b0b0;stroke-linecap:square;stroke-width:0.8;"/>
     </g>
     <g id="line2d_18">
      <g>
       <use style="stroke:#000000;stroke-width:0.8;" x="977.469025" xlink:href="#mfcec24f238" y="576"/>
      </g>
     </g>
     <g id="text_9">
      <!-- 06:08 -->
      <g transform="translate(951.471411 603.989815)rotate(-30)scale(0.1 -0.1)">
       <defs>
        <path d="M 31.78125 34.625 
Q 24.75 34.625 20.71875 30.859375 
Q 16.703125 27.09375 16.703125 20.515625 
Q 16.703125 13.921875 20.71875 10.15625 
Q 24.75 6.390625 31.78125 6.390625 
Q 38.8125 6.390625 42.859375 10.171875 
Q 46.921875 13.96875 46.921875 20.515625 
Q 46.921875 27.09375 42.890625 30.859375 
Q 38.875 34.625 31.78125 34.625 
z
M 21.921875 38.8125 
Q 15.578125 40.375 12.03125 44.71875 
Q 8.5 49.078125 8.5 55.328125 
Q 8.5 64.0625 14.71875 69.140625 
Q 20.953125 74.21875 31.78125 74.21875 
Q 42.671875 74.21875 48.875 69.140625 
Q 55.078125 64.0625 55.078125 55.328125 
Q 55.078125 49.078125 51.53125 44.71875 
Q 48 40.375 41.703125 38.8125 
Q 48.828125 37.15625 52.796875 32.3125 
Q 56.78125 27.484375 56.78125 20.515625 
Q 56.78125 9.90625 50.3125 4.234375 
Q 43.84375 -1.421875 31.78125 -1.421875 
Q 19.734375 -1.421875 13.25 4.234375 
Q 6.78125 9.90625 6.78125 20.515625 
Q 6.78125 27.484375 10.78125 32.3125 
Q 14.796875 37.15625 21.921875 38.8125 
z
M 18.3125 54.390625 
Q 18.3125 48.734375 21.84375 45.5625 
Q 25.390625 42.390625 31.78125 42.390625 
Q 38.140625 42.390625 41.71875 45.5625 
Q 45.3125 48.734375 45.3125 54.390625 
Q 45.3125 60.0625 41.71875 63.234375 
Q 38.140625 66.40625 31.78125 66.40625 
Q 25.390625 66.40625 21.84375 63.234375 
Q 18.3125 60.0625 18.3125 54.390625 
z
" id="DejaVuSans-56"/>
       </defs>
       <use xlink:href="#DejaVuSans-48"/>
       <use x="63.623047" xlink:href="#DejaVuSans-54"/>
       <use x="127.246094" xlink:href="#DejaVuSans-58"/>
       <use x="160.9375" xlink:href="#DejaVuSans-48"/>
       <use x="224.560547" xlink:href="#DejaVuSans-56"/>
      </g>
     </g>
    </g>
    <g id="xtick_10">
     <g id="line2d_19">
      <path clip-path="url(#p626638635e)" d="M 1070.845596 576 
L 1070.845596 86.4 
" style="fill:none;stroke:#b0b0b0;stroke-linecap:square;stroke-width:0.8;"/>
     </g>
     <g id="line2d_20">
      <g>
       <use style="stroke:#000000;stroke-width:0.8;" x="1070.845596" xlink:href="#mfcec24f238" y="576"/>
      </g>
     </g>
     <g id="text_10">
      <!-- 06:09 -->
      <g transform="translate(1044.847983 603.989815)rotate(-30)scale(0.1 -0.1)">
       <defs>
        <path d="M 10.984375 1.515625 
L 10.984375 10.5 
Q 14.703125 8.734375 18.5 7.8125 
Q 22.3125 6.890625 25.984375 6.890625 
Q 35.75 6.890625 40.890625 13.453125 
Q 46.046875 20.015625 46.78125 33.40625 
Q 43.953125 29.203125 39.59375 26.953125 
Q 35.25 24.703125 29.984375 24.703125 
Q 19.046875 24.703125 12.671875 31.3125 
Q 6.296875 37.9375 6.296875 49.421875 
Q 6.296875 60.640625 12.9375 67.421875 
Q 19.578125 74.21875 30.609375 74.21875 
Q 43.265625 74.21875 49.921875 64.515625 
Q 56.59375 54.828125 56.59375 36.375 
Q 56.59375 19.140625 48.40625 8.859375 
Q 40.234375 -1.421875 26.421875 -1.421875 
Q 22.703125 -1.421875 18.890625 -0.6875 
Q 15.09375 0.046875 10.984375 1.515625 
z
M 30.609375 32.421875 
Q 37.25 32.421875 41.125 36.953125 
Q 45.015625 41.5 45.015625 49.421875 
Q 45.015625 57.28125 41.125 61.84375 
Q 37.25 66.40625 30.609375 66.40625 
Q 23.96875 66.40625 20.09375 61.84375 
Q 16.21875 57.28125 16.21875 49.421875 
Q 16.21875 41.5 20.09375 36.953125 
Q 23.96875 32.421875 30.609375 32.421875 
z
" id="DejaVuSans-57"/>
       </defs>
       <use xlink:href="#DejaVuSans-48"/>
       <use x="63.623047" xlink:href="#DejaVuSans-54"/>
       <use x="127.246094" xlink:href="#DejaVuSans-58"/>
       <use x="160.9375" xlink:href="#DejaVuSans-48"/>
       <use x="224.560547" xlink:href="#DejaVuSans-57"/>
      </g>
     </g>
    </g>
    <g id="xtick_11">
     <g id="line2d_21">
      <path clip-path="url(#p626638635e)" d="M 1164.222183 576 
L 1164.222183 86.4 
" style="fill:none;stroke:#b0b0b0;stroke-linecap:square;stroke-width:0.8;"/>
     </g>
     <g id="line2d_22">
      <g>
       <use style="stroke:#000000;stroke-width:0.8;" x="1164.222183" xlink:href="#mfcec24f238" y="576"/>
      </g>
     </g>
     <g id="text_11">
      <!-- 06:10 -->
      <g transform="translate(1138.22457 603.989815)rotate(-30)scale(0.1 -0.1)">
       <use xlink:href="#DejaVuSans-48"/>
       <use x="63.623047" xlink:href="#DejaVuSans-54"/>
       <use x="127.246094" xlink:href="#DejaVuSans-58"/>
       <use x="160.9375" xlink:href="#DejaVuSans-49"/>
       <use x="224.560547" xlink:href="#DejaVuSans-48"/>
      </g>
     </g>
    </g>
    <g id="xtick_12">
     <g id="line2d_23">
      <path clip-path="url(#p626638635e)" d="M 1257.598755 576 
L 1257.598755 86.4 
" style="fill:none;stroke:#b0b0b0;stroke-linecap:square;stroke-width:0.8;"/>
     </g>
     <g id="line2d_24">
      <g>
       <use style="stroke:#000000;stroke-width:0.8;" x="1257.598755" xlink:href="#mfcec24f238" y="576"/>
      </g>
     </g>
     <g id="text_12">
      <!-- 06:11 -->
      <g transform="translate(1231.601142 603.989815)rotate(-30)scale(0.1 -0.1)">
       <use xlink:href="#DejaVuSans-48"/>
       <use x="63.623047" xlink:href="#DejaVuSans-54"/>
       <use x="127.246094" xlink:href="#DejaVuSans-58"/>
       <use x="160.9375" xlink:href="#DejaVuSans-49"/>
       <use x="224.560547" xlink:href="#DejaVuSans-49"/>
      </g>
     </g>
    </g>
    <g id="text_13">
     <!-- time -->
     <g transform="translate(726.703906 617.389315)scale(0.1 -0.1)">
      <defs>
       <path d="M 18.3125 70.21875 
L 18.3125 54.6875 
L 36.8125 54.6875 
L 36.8125 47.703125 
L 18.3125 47.703125 
L 18.3125 18.015625 
Q 18.3125 11.328125 20.140625 9.421875 
Q 21.96875 7.515625 27.59375 7.515625 
L 36.8125 7.515625 
L 36.8125 0 
L 27.59375 0 
Q 17.1875 0 13.234375 3.875 
Q 9.28125 7.765625 9.28125 18.015625 
L 9.28125 47.703125 
L 2.6875 47.703125 
L 2.6875 54.6875 
L 9.28125 54.6875 
L 9.28125 70.21875 
z
" id="DejaVuSans-116"/>
       <path d="M 9.421875 54.6875 
L 18.40625 54.6875 
L 18.40625 0 
L 9.421875 0 
z
M 9.421875 75.984375 
L 18.40625 75.984375 
L 18.40625 64.59375 
L 9.421875 64.59375 
z
" id="DejaVuSans-105"/>
       <path d="M 52 44.1875 
Q 55.375 50.25 60.0625 53.125 
Q 64.75 56 71.09375 56 
Q 79.640625 56 84.28125 50.015625 
Q 88.921875 44.046875 88.921875 33.015625 
L 88.921875 0 
L 79.890625 0 
L 79.890625 32.71875 
Q 79.890625 40.578125 77.09375 44.375 
Q 74.3125 48.1875 68.609375 48.1875 
Q 61.625 48.1875 57.5625 43.546875 
Q 53.515625 38.921875 53.515625 30.90625 
L 53.515625 0 
L 44.484375 0 
L 44.484375 32.71875 
Q 44.484375 40.625 41.703125 44.40625 
Q 38.921875 48.1875 33.109375 48.1875 
Q 26.21875 48.1875 22.15625 43.53125 
Q 18.109375 38.875 18.109375 30.90625 
L 18.109375 0 
L 9.078125 0 
L 9.078125 54.6875 
L 18.109375 54.6875 
L 18.109375 46.1875 
Q 21.1875 51.21875 25.484375 53.609375 
Q 29.78125 56 35.6875 56 
Q 41.65625 56 45.828125 52.96875 
Q 50 49.953125 52 44.1875 
z
" id="DejaVuSans-109"/>
       <path d="M 56.203125 29.59375 
L 56.203125 25.203125 
L 14.890625 25.203125 
Q 15.484375 15.921875 20.484375 11.0625 
Q 25.484375 6.203125 34.421875 6.203125 
Q 39.59375 6.203125 44.453125 7.46875 
Q 49.3125 8.734375 54.109375 11.28125 
L 54.109375 2.78125 
Q 49.265625 0.734375 44.1875 -0.34375 
Q 39.109375 -1.421875 33.890625 -1.421875 
Q 20.796875 -1.421875 13.15625 6.1875 
Q 5.515625 13.8125 5.515625 26.8125 
Q 5.515625 40.234375 12.765625 48.109375 
Q 20.015625 56 32.328125 56 
Q 43.359375 56 49.78125 48.890625 
Q 56.203125 41.796875 56.203125 29.59375 
z
M 47.21875 32.234375 
Q 47.125 39.59375 43.09375 43.984375 
Q 39.0625 48.390625 32.421875 48.390625 
Q 24.90625 48.390625 20.390625 44.140625 
Q 15.875 39.890625 15.1875 32.171875 
z
" id="DejaVuSans-101"/>
      </defs>
      <use xlink:href="#DejaVuSans-116"/>
      <use x="39.208984" xlink:href="#DejaVuSans-105"/>
      <use x="66.992188" xlink:href="#DejaVuSans-109"/>
      <use x="164.404297" xlink:href="#DejaVuSans-101"/>
     </g>
    </g>
   </g>
   <g id="matplotlib.axis_2">
    <g id="ytick_1">
     <g id="line2d_25">
      <defs>
       <path d="M 0 0 
L -3.5 0 
" id="md6185a3288" style="stroke:#000000;stroke-width:0.8;"/>
      </defs>
      <g>
       <use style="stroke:#000000;stroke-width:0.8;" x="180" xlink:href="#md6185a3288" y="553.745455"/>
      </g>
     </g>
     <g id="text_14">
      <!-- 17.45 -->
      <g transform="translate(144.371875 557.544673)scale(0.1 -0.1)">
       <defs>
        <path d="M 10.6875 12.40625 
L 21 12.40625 
L 21 0 
L 10.6875 0 
z
" id="DejaVuSans-46"/>
       </defs>
       <use xlink:href="#DejaVuSans-49"/>
       <use x="63.623047" xlink:href="#DejaVuSans-55"/>
       <use x="127.246094" xlink:href="#DejaVuSans-46"/>
       <use x="159.033203" xlink:href="#DejaVuSans-52"/>
       <use x="222.65625" xlink:href="#DejaVuSans-53"/>
      </g>
     </g>
    </g>
    <g id="ytick_2">
     <g id="line2d_26">
      <g>
       <use style="stroke:#000000;stroke-width:0.8;" x="180" xlink:href="#md6185a3288" y="461.018182"/>
      </g>
     </g>
     <g id="text_15">
      <!-- 17.50 -->
      <g transform="translate(144.371875 464.817401)scale(0.1 -0.1)">
       <use xlink:href="#DejaVuSans-49"/>
       <use x="63.623047" xlink:href="#DejaVuSans-55"/>
       <use x="127.246094" xlink:href="#DejaVuSans-46"/>
       <use x="159.033203" xlink:href="#DejaVuSans-53"/>
       <use x="222.65625" xlink:href="#DejaVuSans-48"/>
      </g>
     </g>
    </g>
    <g id="ytick_3">
     <g id="line2d_27">
      <g>
       <use style="stroke:#000000;stroke-width:0.8;" x="180" xlink:href="#md6185a3288" y="368.290909"/>
      </g>
     </g>
     <g id="text_16">
      <!-- 17.55 -->
      <g transform="translate(144.371875 372.090128)scale(0.1 -0.1)">
       <use xlink:href="#DejaVuSans-49"/>
       <use x="63.623047" xlink:href="#DejaVuSans-55"/>
       <use x="127.246094" xlink:href="#DejaVuSans-46"/>
       <use x="159.033203" xlink:href="#DejaVuSans-53"/>
       <use x="222.65625" xlink:href="#DejaVuSans-53"/>
      </g>
     </g>
    </g>
    <g id="ytick_4">
     <g id="line2d_28">
      <g>
       <use style="stroke:#000000;stroke-width:0.8;" x="180" xlink:href="#md6185a3288" y="275.563636"/>
      </g>
     </g>
     <g id="text_17">
      <!-- 17.60 -->
      <g transform="translate(144.371875 279.362855)scale(0.1 -0.1)">
       <use xlink:href="#DejaVuSans-49"/>
       <use x="63.623047" xlink:href="#DejaVuSans-55"/>
       <use x="127.246094" xlink:href="#DejaVuSans-46"/>
       <use x="159.033203" xlink:href="#DejaVuSans-54"/>
       <use x="222.65625" xlink:href="#DejaVuSans-48"/>
      </g>
     </g>
    </g>
    <g id="ytick_5">
     <g id="line2d_29">
      <g>
       <use style="stroke:#000000;stroke-width:0.8;" x="180" xlink:href="#md6185a3288" y="182.836364"/>
      </g>
     </g>
     <g id="text_18">
      <!-- 17.65 -->
      <g transform="translate(144.371875 186.635582)scale(0.1 -0.1)">
       <use xlink:href="#DejaVuSans-49"/>
       <use x="63.623047" xlink:href="#DejaVuSans-55"/>
       <use x="127.246094" xlink:href="#DejaVuSans-46"/>
       <use x="159.033203" xlink:href="#DejaVuSans-54"/>
       <use x="222.65625" xlink:href="#DejaVuSans-53"/>
      </g>
     </g>
    </g>
    <g id="ytick_6">
     <g id="line2d_30">
      <g>
       <use style="stroke:#000000;stroke-width:0.8;" x="180" xlink:href="#md6185a3288" y="90.109091"/>
      </g>
     </g>
     <g id="text_19">
      <!-- 17.70 -->
      <g transform="translate(144.371875 93.90831)scale(0.1 -0.1)">
       <use xlink:href="#DejaVuSans-49"/>
       <use x="63.623047" xlink:href="#DejaVuSans-55"/>
       <use x="127.246094" xlink:href="#DejaVuSans-46"/>
       <use x="159.033203" xlink:href="#DejaVuSans-55"/>
       <use x="222.65625" xlink:href="#DejaVuSans-48"/>
      </g>
     </g>
    </g>
   </g>
   <g id="line2d_31">
    <path clip-path="url(#p626638635e)" d="M 230.727264 461.018182 
L 230.761475 461.018182 
L 230.76738 516.654545 
L 232.38179 516.654545 
L 232.3992 535.2 
L 233.741959 535.2 
L 233.912918 553.745455 
L 238.64978 535.2 
L 239.803101 535.2 
L 239.808411 553.745455 
L 242.923126 553.745455 
L 242.94249 386.836364 
L 247.594604 386.836364 
L 247.610641 275.563636 
L 249.157227 275.563636 
L 252.640732 238.472727 
L 256.142822 238.472727 
L 256.142822 238.472727 
L 259.737442 201.381818 
L 278.597565 201.381818 
L 278.597565 201.381818 
L 279.121796 312.654545 
L 279.591797 312.654545 
L 279.591797 312.654545 
L 279.608887 275.563636 
L 279.608887 275.563636 
L 279.750443 275.563636 
L 279.750443 275.563636 
L 280.550995 127.2 
L 281.968063 127.2 
L 281.968063 127.2 
L 282.108383 145.745455 
L 289.456741 145.745455 
L 298.519608 108.654545 
L 302.467178 108.654545 
L 302.467178 108.654545 
L 302.939743 201.381818 
L 302.939743 201.381818 
L 303.709091 145.745455 
L 315.586426 349.745455 
L 316.161346 349.745455 
L 316.161346 349.745455 
L 317.102081 201.381818 
L 324.389359 275.563636 
L 327.732132 275.563636 
L 330.141846 312.654545 
L 334.612503 312.654545 
L 335.172729 201.381818 
L 352.008362 201.381818 
L 352.008362 201.381818 
L 358.390076 145.745455 
L 359.530472 145.745455 
L 359.530472 145.745455 
L 368.509125 182.836364 
L 368.511429 201.381818 
L 370.547226 201.381818 
L 371.781235 238.472727 
L 375.966614 238.472727 
L 375.966614 238.472727 
L 382.624115 201.381818 
L 427.331924 201.381818 
L 427.341324 182.836364 
L 462.795059 182.836364 
L 462.795059 182.836364 
L 467.533829 164.290909 
L 571.788651 164.290909 
L 572.952759 145.745455 
L 573.008652 108.654545 
L 582.280731 108.654545 
L 582.280731 108.654545 
L 584.274185 145.745455 
L 635.107559 145.745455 
L 635.107559 145.745455 
L 646.137192 164.290909 
L 669.286438 164.290909 
L 678.191208 349.745455 
L 678.191208 349.745455 
L 680.398026 331.2 
L 687.014908 349.745455 
L 699.237534 349.745455 
L 699.333969 368.290909 
L 719.647812 368.290909 
L 756.282684 349.745455 
L 762.853531 349.745455 
L 773.537018 368.290909 
L 776.31485 368.290909 
L 796.852356 386.836364 
L 796.852356 386.836364 
L 821.728836 386.836364 
L 821.728836 386.836364 
L 821.939102 405.381818 
L 821.953537 423.927273 
L 826.448517 423.927273 
L 826.448517 423.927273 
L 834.248596 368.290909 
L 834.248596 368.290909 
L 837.508942 386.836364 
L 977.761261 386.836364 
L 977.817032 405.381818 
L 979.540817 423.927273 
L 982.870651 423.927273 
L 988.618027 386.836364 
L 1015.345612 386.836364 
L 1020.379807 405.381818 
L 1022.447433 442.472727 
L 1022.480637 461.018182 
L 1022.480637 461.018182 
L 1028.911072 461.018182 
L 1028.911072 461.018182 
L 1036.032227 442.472727 
L 1047.887238 442.472727 
L 1048.335022 423.927273 
L 1067.774933 423.927273 
L 1070.86795 461.018182 
L 1117.265274 461.018182 
L 1117.720169 442.472727 
L 1118.898834 461.018182 
L 1118.898834 461.018182 
L 1123.908905 442.472727 
L 1136.221832 461.018182 
L 1136.221832 461.018182 
L 1245.269165 461.018182 
L 1245.269165 461.018182 
L 1245.26947 479.563636 
L 1245.27272 461.018182 
" style="fill:none;stroke:#ff0000;stroke-linecap:square;stroke-width:1.5;"/>
   </g>
   <g id="line2d_32">
    <defs>
     <path d="M 0 -3 
L -3 3 
L 3 3 
z
" id="m084fba5e77" style="stroke:#008000;stroke-linejoin:miter;"/>
    </defs>
    <g clip-path="url(#p626638635e)">
     <use style="fill:#008000;stroke:#008000;stroke-linejoin:miter;" x="247.602066" xlink:href="#m084fba5e77" y="349.745455"/>
     <use style="fill:#008000;stroke:#008000;stroke-linejoin:miter;" x="247.610641" xlink:href="#m084fba5e77" y="275.563636"/>
     <use style="fill:#008000;stroke:#008000;stroke-linejoin:miter;" x="249.157227" xlink:href="#m084fba5e77" y="275.563636"/>
     <use style="fill:#008000;stroke:#008000;stroke-linejoin:miter;" x="280.550995" xlink:href="#m084fba5e77" y="127.2"/>
     <use style="fill:#008000;stroke:#008000;stroke-linejoin:miter;" x="317.102081" xlink:href="#m084fba5e77" y="201.381818"/>
     <use style="fill:#008000;stroke:#008000;stroke-linejoin:miter;" x="398.268921" xlink:href="#m084fba5e77" y="201.381818"/>
     <use style="fill:#008000;stroke:#008000;stroke-linejoin:miter;" x="485.905396" xlink:href="#m084fba5e77" y="164.290909"/>
     <use style="fill:#008000;stroke:#008000;stroke-linejoin:miter;" x="627.30957" xlink:href="#m084fba5e77" y="145.745455"/>
     <use style="fill:#008000;stroke:#008000;stroke-linejoin:miter;" x="1036.032227" xlink:href="#m084fba5e77" y="442.472727"/>
     <use style="fill:#008000;stroke:#008000;stroke-linejoin:miter;" x="1080.824539" xlink:href="#m084fba5e77" y="461.018182"/>
     <use style="fill:#008000;stroke:#008000;stroke-linejoin:miter;" x="1137.928818" xlink:href="#m084fba5e77" y="461.018182"/>
    </g>
   </g>
   <g id="line2d_33">
    <defs>
     <path d="M -0 3 
L 3 -3 
L -3 -3 
z
" id="mb34506dc76" style="stroke:#0000ff;stroke-linejoin:miter;"/>
    </defs>
    <g clip-path="url(#p626638635e)">
     <use style="fill:#0000ff;stroke:#0000ff;stroke-linejoin:miter;" x="315.586426" xlink:href="#mb34506dc76" y="349.745455"/>
     <use style="fill:#0000ff;stroke:#0000ff;stroke-linejoin:miter;" x="626.3311" xlink:href="#mb34506dc76" y="145.745455"/>
     <use style="fill:#0000ff;stroke:#0000ff;stroke-linejoin:miter;" x="678.100983" xlink:href="#mb34506dc76" y="349.745455"/>
     <use style="fill:#0000ff;stroke:#0000ff;stroke-linejoin:miter;" x="762.853531" xlink:href="#mb34506dc76" y="349.745455"/>
     <use style="fill:#0000ff;stroke:#0000ff;stroke-linejoin:miter;" x="796.8349" xlink:href="#mb34506dc76" y="386.836364"/>
     <use style="fill:#0000ff;stroke:#0000ff;stroke-linejoin:miter;" x="821.728836" xlink:href="#mb34506dc76" y="386.836364"/>
     <use style="fill:#0000ff;stroke:#0000ff;stroke-linejoin:miter;" x="977.761261" xlink:href="#mb34506dc76" y="386.836364"/>
     <use style="fill:#0000ff;stroke:#0000ff;stroke-linejoin:miter;" x="979.540817" xlink:href="#mb34506dc76" y="423.927273"/>
     <use style="fill:#0000ff;stroke:#0000ff;stroke-linejoin:miter;" x="1020.379807" xlink:href="#mb34506dc76" y="405.381818"/>
     <use style="fill:#0000ff;stroke:#0000ff;stroke-linejoin:miter;" x="1022.447433" xlink:href="#mb34506dc76" y="442.472727"/>
     <use style="fill:#0000ff;stroke:#0000ff;stroke-linejoin:miter;" x="1022.463562" xlink:href="#mb34506dc76" y="461.018182"/>
     <use style="fill:#0000ff;stroke:#0000ff;stroke-linejoin:miter;" x="1023.09375" xlink:href="#mb34506dc76" y="461.018182"/>
     <use style="fill:#0000ff;stroke:#0000ff;stroke-linejoin:miter;" x="1023.095322" xlink:href="#mb34506dc76" y="461.018182"/>
     <use style="fill:#0000ff;stroke:#0000ff;stroke-linejoin:miter;" x="1024.70723" xlink:href="#mb34506dc76" y="461.018182"/>
     <use style="fill:#0000ff;stroke:#0000ff;stroke-linejoin:miter;" x="1042.802002" xlink:href="#mb34506dc76" y="442.472727"/>
     <use style="fill:#0000ff;stroke:#0000ff;stroke-linejoin:miter;" x="1070.86795" xlink:href="#mb34506dc76" y="461.018182"/>
     <use style="fill:#0000ff;stroke:#0000ff;stroke-linejoin:miter;" x="1164.608002" xlink:href="#mb34506dc76" y="461.018182"/>
     <use style="fill:#0000ff;stroke:#0000ff;stroke-linejoin:miter;" x="1183.95668" xlink:href="#mb34506dc76" y="461.018182"/>
     <use style="fill:#0000ff;stroke:#0000ff;stroke-linejoin:miter;" x="1185.674377" xlink:href="#mb34506dc76" y="461.018182"/>
    </g>
   </g>
   <g id="line2d_34">
    <defs>
     <path d="M -3 3 
L 3 -3 
M -3 -3 
L 3 3 
" id="mc3a2dcad3d" style="stroke:#008000;"/>
    </defs>
    <g clip-path="url(#p626638635e)">
     <use style="fill:#008000;stroke:#008000;" x="449.994064" xlink:href="#mc3a2dcad3d" y="182.836364"/>
     <use style="fill:#008000;stroke:#008000;" x="461.493805" xlink:href="#mc3a2dcad3d" y="182.836364"/>
     <use style="fill:#008000;stroke:#008000;" x="594.409531" xlink:href="#mc3a2dcad3d" y="145.745455"/>
     <use style="fill:#008000;stroke:#008000;" x="603.652374" xlink:href="#mc3a2dcad3d" y="145.745455"/>
     <use style="fill:#008000;stroke:#008000;" x="1067.774933" xlink:href="#mc3a2dcad3d" y="423.927273"/>
     <use style="fill:#008000;stroke:#008000;" x="1118.898834" xlink:href="#mc3a2dcad3d" y="461.018182"/>
     <use style="fill:#008000;stroke:#008000;" x="1137.928818" xlink:href="#mc3a2dcad3d" y="461.018182"/>
     <use style="fill:#008000;stroke:#008000;" x="1148.111237" xlink:href="#mc3a2dcad3d" y="461.018182"/>
     <use style="fill:#008000;stroke:#008000;" x="1245.269272" xlink:href="#mc3a2dcad3d" y="479.563636"/>
     <use style="fill:#008000;stroke:#008000;" x="1245.269272" xlink:href="#mc3a2dcad3d" y="479.563636"/>
     <use style="fill:#008000;stroke:#008000;" x="1245.269272" xlink:href="#mc3a2dcad3d" y="479.563636"/>
     <use style="fill:#008000;stroke:#008000;" x="1245.269379" xlink:href="#mc3a2dcad3d" y="461.018182"/>
     <use style="fill:#008000;stroke:#008000;" x="1245.26947" xlink:href="#mc3a2dcad3d" y="479.563636"/>
     <use style="fill:#008000;stroke:#008000;" x="1245.26947" xlink:href="#mc3a2dcad3d" y="479.563636"/>
     <use style="fill:#008000;stroke:#008000;" x="1245.26947" xlink:href="#mc3a2dcad3d" y="479.563636"/>
     <use style="fill:#008000;stroke:#008000;" x="1245.269806" xlink:href="#mc3a2dcad3d" y="461.018182"/>
    </g>
   </g>
   <g id="line2d_35">
    <defs>
     <path d="M -3 3 
L 3 -3 
M -3 -3 
L 3 3 
" id="m3b094bca82" style="stroke:#0000ff;"/>
    </defs>
    <g clip-path="url(#p626638635e)">
     <use style="fill:#0000ff;stroke:#0000ff;" x="435.795319" xlink:href="#m3b094bca82" y="182.836364"/>
     <use style="fill:#0000ff;stroke:#0000ff;" x="797.293015" xlink:href="#m3b094bca82" y="386.836364"/>
     <use style="fill:#0000ff;stroke:#0000ff;" x="797.299149" xlink:href="#m3b094bca82" y="386.836364"/>
     <use style="fill:#0000ff;stroke:#0000ff;" x="797.306595" xlink:href="#m3b094bca82" y="386.836364"/>
     <use style="fill:#0000ff;stroke:#0000ff;" x="822.204132" xlink:href="#m3b094bca82" y="423.927273"/>
     <use style="fill:#0000ff;stroke:#0000ff;" x="822.210648" xlink:href="#m3b094bca82" y="423.927273"/>
     <use style="fill:#0000ff;stroke:#0000ff;" x="822.21225" xlink:href="#m3b094bca82" y="423.927273"/>
     <use style="fill:#0000ff;stroke:#0000ff;" x="1022.480637" xlink:href="#m3b094bca82" y="461.018182"/>
     <use style="fill:#0000ff;stroke:#0000ff;" x="1171.139526" xlink:href="#m3b094bca82" y="461.018182"/>
     <use style="fill:#0000ff;stroke:#0000ff;" x="1171.139816" xlink:href="#m3b094bca82" y="461.018182"/>
     <use style="fill:#0000ff;stroke:#0000ff;" x="1171.1418" xlink:href="#m3b094bca82" y="461.018182"/>
     <use style="fill:#0000ff;stroke:#0000ff;" x="1171.143433" xlink:href="#m3b094bca82" y="461.018182"/>
     <use style="fill:#0000ff;stroke:#0000ff;" x="1171.145218" xlink:href="#m3b094bca82" y="461.018182"/>
     <use style="fill:#0000ff;stroke:#0000ff;" x="1245.269806" xlink:href="#m3b094bca82" y="461.018182"/>
     <use style="fill:#0000ff;stroke:#0000ff;" x="1245.269806" xlink:href="#m3b094bca82" y="461.018182"/>
     <use style="fill:#0000ff;stroke:#0000ff;" x="1245.269806" xlink:href="#m3b094bca82" y="461.018182"/>
     <use style="fill:#0000ff;stroke:#0000ff;" x="1245.27272" xlink:href="#m3b094bca82" y="461.018182"/>
    </g>
   </g>
   <g id="patch_3">
    <path d="M 180 576 
L 180 86.4 
" style="fill:none;stroke:#000000;stroke-linecap:square;stroke-linejoin:miter;stroke-width:0.8;"/>
   </g>
   <g id="patch_4">
    <path d="M 1296 576 
L 1296 86.4 
" style="fill:none;stroke:#000000;stroke-linecap:square;stroke-linejoin:miter;stroke-width:0.8;"/>
   </g>
   <g id="patch_5">
    <path d="M 180 576 
L 1296 576 
" style="fill:none;stroke:#000000;stroke-linecap:square;stroke-linejoin:miter;stroke-width:0.8;"/>
   </g>
   <g id="patch_6">
    <path d="M 180 86.4 
L 1296 86.4 
" style="fill:none;stroke:#000000;stroke-linecap:square;stroke-linejoin:miter;stroke-width:0.8;"/>
   </g>
   <g id="legend_1">
    <g id="patch_7">
     <path d="M 1358.8 167.790625 
L 1475.159375 167.790625 
Q 1477.159375 167.790625 1477.159375 165.790625 
L 1477.159375 93.4 
Q 1477.159375 91.4 1475.159375 91.4 
L 1358.8 91.4 
Q 1356.8 91.4 1356.8 93.4 
L 1356.8 165.790625 
Q 1356.8 167.790625 1358.8 167.790625 
z
" style="fill:#ffffff;opacity:0.8;stroke:#cccccc;stroke-linejoin:miter;"/>
    </g>
    <g id="line2d_36">
     <path d="M 1360.8 99.498438 
L 1380.8 99.498438 
" style="fill:none;stroke:#ff0000;stroke-linecap:square;stroke-width:1.5;"/>
    </g>
    <g id="line2d_37"/>
    <g id="text_20">
     <!-- Predict Price -->
     <g transform="translate(1388.8 102.998438)scale(0.1 -0.1)">
      <defs>
       <path d="M 19.671875 64.796875 
L 19.671875 37.40625 
L 32.078125 37.40625 
Q 38.96875 37.40625 42.71875 40.96875 
Q 46.484375 44.53125 46.484375 51.125 
Q 46.484375 57.671875 42.71875 61.234375 
Q 38.96875 64.796875 32.078125 64.796875 
z
M 9.8125 72.90625 
L 32.078125 72.90625 
Q 44.34375 72.90625 50.609375 67.359375 
Q 56.890625 61.8125 56.890625 51.125 
Q 56.890625 40.328125 50.609375 34.8125 
Q 44.34375 29.296875 32.078125 29.296875 
L 19.671875 29.296875 
L 19.671875 0 
L 9.8125 0 
z
" id="DejaVuSans-80"/>
       <path d="M 41.109375 46.296875 
Q 39.59375 47.171875 37.8125 47.578125 
Q 36.03125 48 33.890625 48 
Q 26.265625 48 22.1875 43.046875 
Q 18.109375 38.09375 18.109375 28.8125 
L 18.109375 0 
L 9.078125 0 
L 9.078125 54.6875 
L 18.109375 54.6875 
L 18.109375 46.1875 
Q 20.953125 51.171875 25.484375 53.578125 
Q 30.03125 56 36.53125 56 
Q 37.453125 56 38.578125 55.875 
Q 39.703125 55.765625 41.0625 55.515625 
z
" id="DejaVuSans-114"/>
       <path d="M 45.40625 46.390625 
L 45.40625 75.984375 
L 54.390625 75.984375 
L 54.390625 0 
L 45.40625 0 
L 45.40625 8.203125 
Q 42.578125 3.328125 38.25 0.953125 
Q 33.9375 -1.421875 27.875 -1.421875 
Q 17.96875 -1.421875 11.734375 6.484375 
Q 5.515625 14.40625 5.515625 27.296875 
Q 5.515625 40.1875 11.734375 48.09375 
Q 17.96875 56 27.875 56 
Q 33.9375 56 38.25 53.625 
Q 42.578125 51.265625 45.40625 46.390625 
z
M 14.796875 27.296875 
Q 14.796875 17.390625 18.875 11.75 
Q 22.953125 6.109375 30.078125 6.109375 
Q 37.203125 6.109375 41.296875 11.75 
Q 45.40625 17.390625 45.40625 27.296875 
Q 45.40625 37.203125 41.296875 42.84375 
Q 37.203125 48.484375 30.078125 48.484375 
Q 22.953125 48.484375 18.875 42.84375 
Q 14.796875 37.203125 14.796875 27.296875 
z
" id="DejaVuSans-100"/>
       <path d="M 48.78125 52.59375 
L 48.78125 44.1875 
Q 44.96875 46.296875 41.140625 47.34375 
Q 37.3125 48.390625 33.40625 48.390625 
Q 24.65625 48.390625 19.8125 42.84375 
Q 14.984375 37.3125 14.984375 27.296875 
Q 14.984375 17.28125 19.8125 11.734375 
Q 24.65625 6.203125 33.40625 6.203125 
Q 37.3125 6.203125 41.140625 7.25 
Q 44.96875 8.296875 48.78125 10.40625 
L 48.78125 2.09375 
Q 45.015625 0.34375 40.984375 -0.53125 
Q 36.96875 -1.421875 32.421875 -1.421875 
Q 20.0625 -1.421875 12.78125 6.34375 
Q 5.515625 14.109375 5.515625 27.296875 
Q 5.515625 40.671875 12.859375 48.328125 
Q 20.21875 56 33.015625 56 
Q 37.15625 56 41.109375 55.140625 
Q 45.0625 54.296875 48.78125 52.59375 
z
" id="DejaVuSans-99"/>
       <path id="DejaVuSans-32"/>
      </defs>
      <use xlink:href="#DejaVuSans-80"/>
      <use x="58.552734" xlink:href="#DejaVuSans-114"/>
      <use x="97.416016" xlink:href="#DejaVuSans-101"/>
      <use x="158.939453" xlink:href="#DejaVuSans-100"/>
      <use x="222.416016" xlink:href="#DejaVuSans-105"/>
      <use x="250.199219" xlink:href="#DejaVuSans-99"/>
      <use x="305.179688" xlink:href="#DejaVuSans-116"/>
      <use x="344.388672" xlink:href="#DejaVuSans-32"/>
      <use x="376.175781" xlink:href="#DejaVuSans-80"/>
      <use x="434.728516" xlink:href="#DejaVuSans-114"/>
      <use x="475.841797" xlink:href="#DejaVuSans-105"/>
      <use x="503.625" xlink:href="#DejaVuSans-99"/>
      <use x="558.605469" xlink:href="#DejaVuSans-101"/>
     </g>
    </g>
    <g id="line2d_38"/>
    <g id="line2d_39">
     <g>
      <use style="fill:#008000;stroke:#008000;stroke-linejoin:miter;" x="1370.8" xlink:href="#m084fba5e77" y="114.176563"/>
     </g>
    </g>
    <g id="text_21">
     <!-- Large Bid Insert -->
     <g transform="translate(1388.8 117.676563)scale(0.1 -0.1)">
      <defs>
       <path d="M 9.8125 72.90625 
L 19.671875 72.90625 
L 19.671875 8.296875 
L 55.171875 8.296875 
L 55.171875 0 
L 9.8125 0 
z
" id="DejaVuSans-76"/>
       <path d="M 34.28125 27.484375 
Q 23.390625 27.484375 19.1875 25 
Q 14.984375 22.515625 14.984375 16.5 
Q 14.984375 11.71875 18.140625 8.90625 
Q 21.296875 6.109375 26.703125 6.109375 
Q 34.1875 6.109375 38.703125 11.40625 
Q 43.21875 16.703125 43.21875 25.484375 
L 43.21875 27.484375 
z
M 52.203125 31.203125 
L 52.203125 0 
L 43.21875 0 
L 43.21875 8.296875 
Q 40.140625 3.328125 35.546875 0.953125 
Q 30.953125 -1.421875 24.3125 -1.421875 
Q 15.921875 -1.421875 10.953125 3.296875 
Q 6 8.015625 6 15.921875 
Q 6 25.140625 12.171875 29.828125 
Q 18.359375 34.515625 30.609375 34.515625 
L 43.21875 34.515625 
L 43.21875 35.40625 
Q 43.21875 41.609375 39.140625 45 
Q 35.0625 48.390625 27.6875 48.390625 
Q 23 48.390625 18.546875 47.265625 
Q 14.109375 46.140625 10.015625 43.890625 
L 10.015625 52.203125 
Q 14.9375 54.109375 19.578125 55.046875 
Q 24.21875 56 28.609375 56 
Q 40.484375 56 46.34375 49.84375 
Q 52.203125 43.703125 52.203125 31.203125 
z
" id="DejaVuSans-97"/>
       <path d="M 45.40625 27.984375 
Q 45.40625 37.75 41.375 43.109375 
Q 37.359375 48.484375 30.078125 48.484375 
Q 22.859375 48.484375 18.828125 43.109375 
Q 14.796875 37.75 14.796875 27.984375 
Q 14.796875 18.265625 18.828125 12.890625 
Q 22.859375 7.515625 30.078125 7.515625 
Q 37.359375 7.515625 41.375 12.890625 
Q 45.40625 18.265625 45.40625 27.984375 
z
M 54.390625 6.78125 
Q 54.390625 -7.171875 48.1875 -13.984375 
Q 42 -20.796875 29.203125 -20.796875 
Q 24.46875 -20.796875 20.265625 -20.09375 
Q 16.0625 -19.390625 12.109375 -17.921875 
L 12.109375 -9.1875 
Q 16.0625 -11.328125 19.921875 -12.34375 
Q 23.78125 -13.375 27.78125 -13.375 
Q 36.625 -13.375 41.015625 -8.765625 
Q 45.40625 -4.15625 45.40625 5.171875 
L 45.40625 9.625 
Q 42.625 4.78125 38.28125 2.390625 
Q 33.9375 0 27.875 0 
Q 17.828125 0 11.671875 7.65625 
Q 5.515625 15.328125 5.515625 27.984375 
Q 5.515625 40.671875 11.671875 48.328125 
Q 17.828125 56 27.875 56 
Q 33.9375 56 38.28125 53.609375 
Q 42.625 51.21875 45.40625 46.390625 
L 45.40625 54.6875 
L 54.390625 54.6875 
z
" id="DejaVuSans-103"/>
       <path d="M 19.671875 34.8125 
L 19.671875 8.109375 
L 35.5 8.109375 
Q 43.453125 8.109375 47.28125 11.40625 
Q 51.125 14.703125 51.125 21.484375 
Q 51.125 28.328125 47.28125 31.5625 
Q 43.453125 34.8125 35.5 34.8125 
z
M 19.671875 64.796875 
L 19.671875 42.828125 
L 34.28125 42.828125 
Q 41.5 42.828125 45.03125 45.53125 
Q 48.578125 48.25 48.578125 53.8125 
Q 48.578125 59.328125 45.03125 62.0625 
Q 41.5 64.796875 34.28125 64.796875 
z
M 9.8125 72.90625 
L 35.015625 72.90625 
Q 46.296875 72.90625 52.390625 68.21875 
Q 58.5 63.53125 58.5 54.890625 
Q 58.5 48.1875 55.375 44.234375 
Q 52.25 40.28125 46.1875 39.3125 
Q 53.46875 37.75 57.5 32.78125 
Q 61.53125 27.828125 61.53125 20.40625 
Q 61.53125 10.640625 54.890625 5.3125 
Q 48.25 0 35.984375 0 
L 9.8125 0 
z
" id="DejaVuSans-66"/>
       <path d="M 9.8125 72.90625 
L 19.671875 72.90625 
L 19.671875 0 
L 9.8125 0 
z
" id="DejaVuSans-73"/>
       <path d="M 54.890625 33.015625 
L 54.890625 0 
L 45.90625 0 
L 45.90625 32.71875 
Q 45.90625 40.484375 42.875 44.328125 
Q 39.84375 48.1875 33.796875 48.1875 
Q 26.515625 48.1875 22.3125 43.546875 
Q 18.109375 38.921875 18.109375 30.90625 
L 18.109375 0 
L 9.078125 0 
L 9.078125 54.6875 
L 18.109375 54.6875 
L 18.109375 46.1875 
Q 21.34375 51.125 25.703125 53.5625 
Q 30.078125 56 35.796875 56 
Q 45.21875 56 50.046875 50.171875 
Q 54.890625 44.34375 54.890625 33.015625 
z
" id="DejaVuSans-110"/>
       <path d="M 44.28125 53.078125 
L 44.28125 44.578125 
Q 40.484375 46.53125 36.375 47.5 
Q 32.28125 48.484375 27.875 48.484375 
Q 21.1875 48.484375 17.84375 46.4375 
Q 14.5 44.390625 14.5 40.28125 
Q 14.5 37.15625 16.890625 35.375 
Q 19.28125 33.59375 26.515625 31.984375 
L 29.59375 31.296875 
Q 39.15625 29.25 43.1875 25.515625 
Q 47.21875 21.78125 47.21875 15.09375 
Q 47.21875 7.46875 41.1875 3.015625 
Q 35.15625 -1.421875 24.609375 -1.421875 
Q 20.21875 -1.421875 15.453125 -0.5625 
Q 10.6875 0.296875 5.421875 2 
L 5.421875 11.28125 
Q 10.40625 8.6875 15.234375 7.390625 
Q 20.0625 6.109375 24.8125 6.109375 
Q 31.15625 6.109375 34.5625 8.28125 
Q 37.984375 10.453125 37.984375 14.40625 
Q 37.984375 18.0625 35.515625 20.015625 
Q 33.0625 21.96875 24.703125 23.78125 
L 21.578125 24.515625 
Q 13.234375 26.265625 9.515625 29.90625 
Q 5.8125 33.546875 5.8125 39.890625 
Q 5.8125 47.609375 11.28125 51.796875 
Q 16.75 56 26.8125 56 
Q 31.78125 56 36.171875 55.265625 
Q 40.578125 54.546875 44.28125 53.078125 
z
" id="DejaVuSans-115"/>
      </defs>
      <use xlink:href="#DejaVuSans-76"/>
      <use x="55.712891" xlink:href="#DejaVuSans-97"/>
      <use x="116.992188" xlink:href="#DejaVuSans-114"/>
      <use x="156.355469" xlink:href="#DejaVuSans-103"/>
      <use x="219.832031" xlink:href="#DejaVuSans-101"/>
      <use x="281.355469" xlink:href="#DejaVuSans-32"/>
      <use x="313.142578" xlink:href="#DejaVuSans-66"/>
      <use x="381.746094" xlink:href="#DejaVuSans-105"/>
      <use x="409.529297" xlink:href="#DejaVuSans-100"/>
      <use x="473.005859" xlink:href="#DejaVuSans-32"/>
      <use x="504.792969" xlink:href="#DejaVuSans-73"/>
      <use x="534.285156" xlink:href="#DejaVuSans-110"/>
      <use x="597.664062" xlink:href="#DejaVuSans-115"/>
      <use x="649.763672" xlink:href="#DejaVuSans-101"/>
      <use x="711.287109" xlink:href="#DejaVuSans-114"/>
      <use x="752.400391" xlink:href="#DejaVuSans-116"/>
     </g>
    </g>
    <g id="line2d_40"/>
    <g id="line2d_41">
     <g>
      <use style="fill:#0000ff;stroke:#0000ff;stroke-linejoin:miter;" x="1370.8" xlink:href="#mb34506dc76" y="128.854688"/>
     </g>
    </g>
    <g id="text_22">
     <!-- Large Ask Insert -->
     <g transform="translate(1388.8 132.354688)scale(0.1 -0.1)">
      <defs>
       <path d="M 34.1875 63.1875 
L 20.796875 26.90625 
L 47.609375 26.90625 
z
M 28.609375 72.90625 
L 39.796875 72.90625 
L 67.578125 0 
L 57.328125 0 
L 50.6875 18.703125 
L 17.828125 18.703125 
L 11.1875 0 
L 0.78125 0 
z
" id="DejaVuSans-65"/>
       <path d="M 9.078125 75.984375 
L 18.109375 75.984375 
L 18.109375 31.109375 
L 44.921875 54.6875 
L 56.390625 54.6875 
L 27.390625 29.109375 
L 57.625 0 
L 45.90625 0 
L 18.109375 26.703125 
L 18.109375 0 
L 9.078125 0 
z
" id="DejaVuSans-107"/>
      </defs>
      <use xlink:href="#DejaVuSans-76"/>
      <use x="55.712891" xlink:href="#DejaVuSans-97"/>
      <use x="116.992188" xlink:href="#DejaVuSans-114"/>
      <use x="156.355469" xlink:href="#DejaVuSans-103"/>
      <use x="219.832031" xlink:href="#DejaVuSans-101"/>
      <use x="281.355469" xlink:href="#DejaVuSans-32"/>
      <use x="313.142578" xlink:href="#DejaVuSans-65"/>
      <use x="381.550781" xlink:href="#DejaVuSans-115"/>
      <use x="433.650391" xlink:href="#DejaVuSans-107"/>
      <use x="491.560547" xlink:href="#DejaVuSans-32"/>
      <use x="523.347656" xlink:href="#DejaVuSans-73"/>
      <use x="552.839844" xlink:href="#DejaVuSans-110"/>
      <use x="616.21875" xlink:href="#DejaVuSans-115"/>
      <use x="668.318359" xlink:href="#DejaVuSans-101"/>
      <use x="729.841797" xlink:href="#DejaVuSans-114"/>
      <use x="770.955078" xlink:href="#DejaVuSans-116"/>
     </g>
    </g>
    <g id="line2d_42"/>
    <g id="line2d_43">
     <g>
      <use style="fill:#008000;stroke:#008000;" x="1370.8" xlink:href="#mc3a2dcad3d" y="143.532812"/>
     </g>
    </g>
    <g id="text_23">
     <!-- Large Bid Cancel -->
     <g transform="translate(1388.8 147.032812)scale(0.1 -0.1)">
      <defs>
       <path d="M 64.40625 67.28125 
L 64.40625 56.890625 
Q 59.421875 61.53125 53.78125 63.8125 
Q 48.140625 66.109375 41.796875 66.109375 
Q 29.296875 66.109375 22.65625 58.46875 
Q 16.015625 50.828125 16.015625 36.375 
Q 16.015625 21.96875 22.65625 14.328125 
Q 29.296875 6.6875 41.796875 6.6875 
Q 48.140625 6.6875 53.78125 8.984375 
Q 59.421875 11.28125 64.40625 15.921875 
L 64.40625 5.609375 
Q 59.234375 2.09375 53.4375 0.328125 
Q 47.65625 -1.421875 41.21875 -1.421875 
Q 24.65625 -1.421875 15.125 8.703125 
Q 5.609375 18.84375 5.609375 36.375 
Q 5.609375 53.953125 15.125 64.078125 
Q 24.65625 74.21875 41.21875 74.21875 
Q 47.75 74.21875 53.53125 72.484375 
Q 59.328125 70.75 64.40625 67.28125 
z
" id="DejaVuSans-67"/>
       <path d="M 9.421875 75.984375 
L 18.40625 75.984375 
L 18.40625 0 
L 9.421875 0 
z
" id="DejaVuSans-108"/>
      </defs>
      <use xlink:href="#DejaVuSans-76"/>
      <use x="55.712891" xlink:href="#DejaVuSans-97"/>
      <use x="116.992188" xlink:href="#DejaVuSans-114"/>
      <use x="156.355469" xlink:href="#DejaVuSans-103"/>
      <use x="219.832031" xlink:href="#DejaVuSans-101"/>
      <use x="281.355469" xlink:href="#DejaVuSans-32"/>
      <use x="313.142578" xlink:href="#DejaVuSans-66"/>
      <use x="381.746094" xlink:href="#DejaVuSans-105"/>
      <use x="409.529297" xlink:href="#DejaVuSans-100"/>
      <use x="473.005859" xlink:href="#DejaVuSans-32"/>
      <use x="504.792969" xlink:href="#DejaVuSans-67"/>
      <use x="574.617188" xlink:href="#DejaVuSans-97"/>
      <use x="635.896484" xlink:href="#DejaVuSans-110"/>
      <use x="699.275391" xlink:href="#DejaVuSans-99"/>
      <use x="754.255859" xlink:href="#DejaVuSans-101"/>
      <use x="815.779297" xlink:href="#DejaVuSans-108"/>
     </g>
    </g>
    <g id="line2d_44"/>
    <g id="line2d_45">
     <g>
      <use style="fill:#0000ff;stroke:#0000ff;" x="1370.8" xlink:href="#m3b094bca82" y="158.210938"/>
     </g>
    </g>
    <g id="text_24">
     <!-- Large Bid Cancel -->
     <g transform="translate(1388.8 161.710938)scale(0.1 -0.1)">
      <use xlink:href="#DejaVuSans-76"/>
      <use x="55.712891" xlink:href="#DejaVuSans-97"/>
      <use x="116.992188" xlink:href="#DejaVuSans-114"/>
      <use x="156.355469" xlink:href="#DejaVuSans-103"/>
      <use x="219.832031" xlink:href="#DejaVuSans-101"/>
      <use x="281.355469" xlink:href="#DejaVuSans-32"/>
      <use x="313.142578" xlink:href="#DejaVuSans-66"/>
      <use x="381.746094" xlink:href="#DejaVuSans-105"/>
      <use x="409.529297" xlink:href="#DejaVuSans-100"/>
      <use x="473.005859" xlink:href="#DejaVuSans-32"/>
      <use x="504.792969" xlink:href="#DejaVuSans-67"/>
      <use x="574.617188" xlink:href="#DejaVuSans-97"/>
      <use x="635.896484" xlink:href="#DejaVuSans-110"/>
      <use x="699.275391" xlink:href="#DejaVuSans-99"/>
      <use x="754.255859" xlink:href="#DejaVuSans-101"/>
      <use x="815.779297" xlink:href="#DejaVuSans-108"/>
     </g>
    </g>
   </g>
  </g>
  <g id="axes_2">
   <g id="matplotlib.axis_3">
    <g id="ytick_7">
     <g id="line2d_46">
      <defs>
       <path d="M 0 0 
L 3.5 0 
" id="ma58ce8d2d2" style="stroke:#000000;stroke-width:0.8;"/>
      </defs>
      <g>
       <use style="stroke:#000000;stroke-width:0.8;" x="1296" xlink:href="#ma58ce8d2d2" y="565.733809"/>
      </g>
     </g>
     <g id="text_25">
      <!-- 0 -->
      <g transform="translate(1303 569.533028)scale(0.1 -0.1)">
       <use xlink:href="#DejaVuSans-48"/>
      </g>
     </g>
    </g>
    <g id="ytick_8">
     <g id="line2d_47">
      <g>
       <use style="stroke:#000000;stroke-width:0.8;" x="1296" xlink:href="#ma58ce8d2d2" y="487.613422"/>
      </g>
     </g>
     <g id="text_26">
      <!-- 50000 -->
      <g transform="translate(1303 491.41264)scale(0.1 -0.1)">
       <use xlink:href="#DejaVuSans-53"/>
       <use x="63.623047" xlink:href="#DejaVuSans-48"/>
       <use x="127.246094" xlink:href="#DejaVuSans-48"/>
       <use x="190.869141" xlink:href="#DejaVuSans-48"/>
       <use x="254.492188" xlink:href="#DejaVuSans-48"/>
      </g>
     </g>
    </g>
    <g id="ytick_9">
     <g id="line2d_48">
      <g>
       <use style="stroke:#000000;stroke-width:0.8;" x="1296" xlink:href="#ma58ce8d2d2" y="409.493034"/>
      </g>
     </g>
     <g id="text_27">
      <!-- 100000 -->
      <g transform="translate(1303 413.292253)scale(0.1 -0.1)">
       <use xlink:href="#DejaVuSans-49"/>
       <use x="63.623047" xlink:href="#DejaVuSans-48"/>
       <use x="127.246094" xlink:href="#DejaVuSans-48"/>
       <use x="190.869141" xlink:href="#DejaVuSans-48"/>
       <use x="254.492188" xlink:href="#DejaVuSans-48"/>
       <use x="318.115234" xlink:href="#DejaVuSans-48"/>
      </g>
     </g>
    </g>
    <g id="ytick_10">
     <g id="line2d_49">
      <g>
       <use style="stroke:#000000;stroke-width:0.8;" x="1296" xlink:href="#ma58ce8d2d2" y="331.372646"/>
      </g>
     </g>
     <g id="text_28">
      <!-- 150000 -->
      <g transform="translate(1303 335.171865)scale(0.1 -0.1)">
       <use xlink:href="#DejaVuSans-49"/>
       <use x="63.623047" xlink:href="#DejaVuSans-53"/>
       <use x="127.246094" xlink:href="#DejaVuSans-48"/>
       <use x="190.869141" xlink:href="#DejaVuSans-48"/>
       <use x="254.492188" xlink:href="#DejaVuSans-48"/>
       <use x="318.115234" xlink:href="#DejaVuSans-48"/>
      </g>
     </g>
    </g>
    <g id="ytick_11">
     <g id="line2d_50">
      <g>
       <use style="stroke:#000000;stroke-width:0.8;" x="1296" xlink:href="#ma58ce8d2d2" y="253.252258"/>
      </g>
     </g>
     <g id="text_29">
      <!-- 200000 -->
      <g transform="translate(1303 257.051477)scale(0.1 -0.1)">
       <use xlink:href="#DejaVuSans-50"/>
       <use x="63.623047" xlink:href="#DejaVuSans-48"/>
       <use x="127.246094" xlink:href="#DejaVuSans-48"/>
       <use x="190.869141" xlink:href="#DejaVuSans-48"/>
       <use x="254.492188" xlink:href="#DejaVuSans-48"/>
       <use x="318.115234" xlink:href="#DejaVuSans-48"/>
      </g>
     </g>
    </g>
    <g id="ytick_12">
     <g id="line2d_51">
      <g>
       <use style="stroke:#000000;stroke-width:0.8;" x="1296" xlink:href="#ma58ce8d2d2" y="175.131871"/>
      </g>
     </g>
     <g id="text_30">
      <!-- 250000 -->
      <g transform="translate(1303 178.931089)scale(0.1 -0.1)">
       <use xlink:href="#DejaVuSans-50"/>
       <use x="63.623047" xlink:href="#DejaVuSans-53"/>
       <use x="127.246094" xlink:href="#DejaVuSans-48"/>
       <use x="190.869141" xlink:href="#DejaVuSans-48"/>
       <use x="254.492188" xlink:href="#DejaVuSans-48"/>
       <use x="318.115234" xlink:href="#DejaVuSans-48"/>
      </g>
     </g>
    </g>
    <g id="ytick_13">
     <g id="line2d_52">
      <g>
       <use style="stroke:#000000;stroke-width:0.8;" x="1296" xlink:href="#ma58ce8d2d2" y="97.011483"/>
      </g>
     </g>
     <g id="text_31">
      <!-- 300000 -->
      <g transform="translate(1303 100.810702)scale(0.1 -0.1)">
       <use xlink:href="#DejaVuSans-51"/>
       <use x="63.623047" xlink:href="#DejaVuSans-48"/>
       <use x="127.246094" xlink:href="#DejaVuSans-48"/>
       <use x="190.869141" xlink:href="#DejaVuSans-48"/>
       <use x="254.492188" xlink:href="#DejaVuSans-48"/>
       <use x="318.115234" xlink:href="#DejaVuSans-48"/>
      </g>
     </g>
    </g>
   </g>
   <g id="line2d_53">
    <path clip-path="url(#p626638635e)" d="M 230.727264 552.836133 
L 230.76738 549.153538 
L 231.43132 545.94279 
L 231.675629 545.94279 
L 232.02005 543.661675 
L 232.183838 543.666362 
L 232.184341 544.031966 
L 232.38179 543.45075 
L 232.3992 537.31205 
L 232.808319 539.958769 
L 232.808563 537.31205 
L 233.663788 537.31205 
L 233.912918 542.816412 
L 239.803101 536.015251 
L 239.808411 533.999745 
L 242.923126 533.999745 
L 242.94249 510.365203 
L 247.593399 510.082407 
L 247.594604 509.888669 
L 247.610641 429.41217 
L 249.157227 425.604583 
L 252.640732 424.042175 
L 256.142822 424.042175 
L 256.142822 424.042175 
L 259.737442 425.559273 
L 272.896622 423.423461 
L 275.831039 423.095356 
L 276.301941 412.647535 
L 276.460587 412.647535 
L 277.693771 408.455595 
L 278.597565 408.455595 
L 278.597565 408.455595 
L 278.983978 397.075017 
L 279.121796 397.075017 
L 279.591797 395.764157 
L 279.591797 395.764157 
L 279.608887 380.527556 
L 279.608887 380.527556 
L 279.750443 380.527556 
L 279.750443 380.527556 
L 280.550995 329.743055 
L 282.108383 329.743055 
L 283.117905 320.454541 
L 283.44902 320.454541 
L 284.998779 319.798329 
L 289.456741 319.79208 
L 298.519608 292.453069 
L 302.467178 292.453069 
L 302.467178 292.453069 
L 302.939743 344.754668 
L 302.939743 344.754668 
L 303.709091 323.941835 
L 315.586426 307.406874 
L 316.161346 307.406874 
L 316.161346 307.406874 
L 317.102081 251.872652 
L 324.389359 250.355554 
L 327.732132 250.355554 
L 330.141846 260.458083 
L 334.612503 259.653443 
L 335.172729 225.352343 
L 336.33902 223.819621 
L 349.151215 223.789935 
L 351.221725 217.635611 
L 352.008362 217.635611 
L 352.008362 217.635611 
L 358.390076 207.436213 
L 359.530472 207.436213 
L 359.530472 207.436213 
L 368.509125 216.724727 
L 368.511429 217.841849 
L 370.539841 217.841849 
L 370.547226 217.116892 
L 372.502655 217.116892 
L 372.502655 217.116892 
L 373.648621 214.021762 
L 375.966614 214.021762 
L 375.966614 214.021762 
L 382.624115 192.927695 
L 392.371216 192.673022 
L 420.741119 192.673022 
L 420.741119 192.673022 
L 427.331787 202.419322 
L 427.331924 203.223962 
L 427.341324 192.535531 
L 462.795059 192.535531 
L 462.795059 192.535531 
L 467.533829 187.312401 
L 539.856705 187.332713 
L 563.778336 182.226764 
L 566.59697 182.206453 
L 571.788651 180.931528 
L 572.952759 180.931528 
L 572.954697 182.448626 
L 573.008652 182.059587 
L 582.280731 182.059587 
L 582.280731 182.059587 
L 584.274185 180.542489 
L 669.286438 180.542489 
L 678.191208 175.408417 
L 678.191208 175.408417 
L 773.537018 175.408417 
L 776.31485 174.470972 
L 839.62291 174.470972 
L 839.62291 174.470972 
L 862.458527 173.049181 
L 863.153641 171.62739 
L 896.5448 171.62739 
L 939.745056 168.58382 
L 944.303787 168.58382 
L 965.393433 168.138533 
L 973.900024 165.952725 
L 982.870651 165.952725 
L 988.618027 150.238028 
L 1012.723114 150.238028 
L 1012.723114 150.238028 
L 1015.345612 150.766122 
L 1020.379807 150.238028 
L 1022.447433 145.266446 
L 1022.480637 143.141572 
L 1022.480637 143.141572 
L 1028.911072 143.141572 
L 1028.911072 143.141572 
L 1036.032227 140.954201 
L 1042.802002 140.649531 
L 1047.887238 142.229126 
L 1048.335022 129.436131 
L 1067.774933 134.65926 
L 1070.86795 122.670905 
L 1075.007156 122.670905 
L 1075.007156 122.670905 
L 1080.824539 117.447776 
L 1111.927139 117.116546 
L 1117.265274 120.160116 
L 1117.720169 108.654545 
L 1118.898834 110.841916 
L 1118.898834 110.841916 
L 1123.908905 110.540372 
L 1136.221344 110.841916 
L 1136.221344 110.841916 
L 1136.221832 114.038603 
L 1136.221832 114.038603 
L 1137.928818 116.650948 
L 1137.928818 116.650948 
L 1141.187119 115.869744 
L 1141.187531 115.557263 
L 1148.111237 118.168046 
L 1151.245346 118.168046 
L 1154.340195 123.392738 
L 1156.313217 112.209023 
L 1156.476593 112.209023 
L 1159.718872 110.174768 
L 1236.642471 110.174768 
L 1236.642471 110.174768 
L 1245.269165 120.949132 
L 1245.269165 120.949132 
L 1245.27272 553.745455 
L 1245.27272 553.745455 
" style="fill:none;stroke:#0000ff;stroke-linecap:square;stroke-width:1.5;"/>
   </g>
   <g id="patch_8">
    <path d="M 180 576 
L 180 86.4 
" style="fill:none;stroke:#000000;stroke-linecap:square;stroke-linejoin:miter;stroke-width:0.8;"/>
   </g>
   <g id="patch_9">
    <path d="M 1296 576 
L 1296 86.4 
" style="fill:none;stroke:#000000;stroke-linecap:square;stroke-linejoin:miter;stroke-width:0.8;"/>
   </g>
   <g id="patch_10">
    <path d="M 180 576 
L 1296 576 
" style="fill:none;stroke:#000000;stroke-linecap:square;stroke-linejoin:miter;stroke-width:0.8;"/>
   </g>
   <g id="patch_11">
    <path d="M 180 86.4 
L 1296 86.4 
" style="fill:none;stroke:#000000;stroke-linecap:square;stroke-linejoin:miter;stroke-width:0.8;"/>
   </g>
   <g id="text_32">
    <!-- XASX:A2M, 2020-06-03 -->
    <g transform="translate(668.063437 80.4)scale(0.12 -0.12)">
     <defs>
      <path d="M 6.296875 72.90625 
L 16.890625 72.90625 
L 35.015625 45.796875 
L 53.21875 72.90625 
L 63.8125 72.90625 
L 40.375 37.890625 
L 65.375 0 
L 54.78125 0 
L 34.28125 31 
L 13.625 0 
L 2.984375 0 
L 29 38.921875 
z
" id="DejaVuSans-88"/>
      <path d="M 53.515625 70.515625 
L 53.515625 60.890625 
Q 47.90625 63.578125 42.921875 64.890625 
Q 37.9375 66.21875 33.296875 66.21875 
Q 25.25 66.21875 20.875 63.09375 
Q 16.5 59.96875 16.5 54.203125 
Q 16.5 49.359375 19.40625 46.890625 
Q 22.3125 44.4375 30.421875 42.921875 
L 36.375 41.703125 
Q 47.40625 39.59375 52.65625 34.296875 
Q 57.90625 29 57.90625 20.125 
Q 57.90625 9.515625 50.796875 4.046875 
Q 43.703125 -1.421875 29.984375 -1.421875 
Q 24.8125 -1.421875 18.96875 -0.25 
Q 13.140625 0.921875 6.890625 3.21875 
L 6.890625 13.375 
Q 12.890625 10.015625 18.65625 8.296875 
Q 24.421875 6.59375 29.984375 6.59375 
Q 38.421875 6.59375 43.015625 9.90625 
Q 47.609375 13.234375 47.609375 19.390625 
Q 47.609375 24.75 44.3125 27.78125 
Q 41.015625 30.8125 33.5 32.328125 
L 27.484375 33.5 
Q 16.453125 35.6875 11.515625 40.375 
Q 6.59375 45.0625 6.59375 53.421875 
Q 6.59375 63.09375 13.40625 68.65625 
Q 20.21875 74.21875 32.171875 74.21875 
Q 37.3125 74.21875 42.625 73.28125 
Q 47.953125 72.359375 53.515625 70.515625 
z
" id="DejaVuSans-83"/>
      <path d="M 9.8125 72.90625 
L 24.515625 72.90625 
L 43.109375 23.296875 
L 61.8125 72.90625 
L 76.515625 72.90625 
L 76.515625 0 
L 66.890625 0 
L 66.890625 64.015625 
L 48.09375 14.015625 
L 38.1875 14.015625 
L 19.390625 64.015625 
L 19.390625 0 
L 9.8125 0 
z
" id="DejaVuSans-77"/>
      <path d="M 11.71875 12.40625 
L 22.015625 12.40625 
L 22.015625 4 
L 14.015625 -11.625 
L 7.71875 -11.625 
L 11.71875 4 
z
" id="DejaVuSans-44"/>
      <path d="M 4.890625 31.390625 
L 31.203125 31.390625 
L 31.203125 23.390625 
L 4.890625 23.390625 
z
" id="DejaVuSans-45"/>
     </defs>
     <use xlink:href="#DejaVuSans-88"/>
     <use x="68.505859" xlink:href="#DejaVuSans-65"/>
     <use x="136.914062" xlink:href="#DejaVuSans-83"/>
     <use x="200.390625" xlink:href="#DejaVuSans-88"/>
     <use x="268.896484" xlink:href="#DejaVuSans-58"/>
     <use x="302.587891" xlink:href="#DejaVuSans-65"/>
     <use x="370.996094" xlink:href="#DejaVuSans-50"/>
     <use x="434.619141" xlink:href="#DejaVuSans-77"/>
     <use x="520.898438" xlink:href="#DejaVuSans-44"/>
     <use x="552.685547" xlink:href="#DejaVuSans-32"/>
     <use x="584.472656" xlink:href="#DejaVuSans-50"/>
     <use x="648.095703" xlink:href="#DejaVuSans-48"/>
     <use x="711.71875" xlink:href="#DejaVuSans-50"/>
     <use x="775.341797" xlink:href="#DejaVuSans-48"/>
     <use x="838.964844" xlink:href="#DejaVuSans-45"/>
     <use x="875.048828" xlink:href="#DejaVuSans-48"/>
     <use x="938.671875" xlink:href="#DejaVuSans-54"/>
     <use x="1002.294922" xlink:href="#DejaVuSans-45"/>
     <use x="1038.378906" xlink:href="#DejaVuSans-48"/>
     <use x="1102.001953" xlink:href="#DejaVuSans-51"/>
    </g>
   </g>
   <g id="legend_2">
    <g id="patch_12">
     <path d="M 1358.8 84.598125 
L 1465.610937 84.598125 
Q 1467.610937 84.598125 1467.610937 82.598125 
L 1467.610937 68.92 
Q 1467.610937 66.92 1465.610937 66.92 
L 1358.8 66.92 
Q 1356.8 66.92 1356.8 68.92 
L 1356.8 82.598125 
Q 1356.8 84.598125 1358.8 84.598125 
z
" style="fill:#ffffff;opacity:0.8;stroke:#cccccc;stroke-linejoin:miter;"/>
    </g>
    <g id="line2d_54">
     <path d="M 1360.8 75.018437 
L 1380.8 75.018437 
" style="fill:none;stroke:#0000ff;stroke-linecap:square;stroke-width:1.5;"/>
    </g>
    <g id="line2d_55"/>
    <g id="text_33">
     <!-- Predict Volume -->
     <g transform="translate(1388.8 78.518437)scale(0.1 -0.1)">
      <defs>
       <path d="M 28.609375 0 
L 0.78125 72.90625 
L 11.078125 72.90625 
L 34.1875 11.53125 
L 57.328125 72.90625 
L 67.578125 72.90625 
L 39.796875 0 
z
" id="DejaVuSans-86"/>
       <path d="M 30.609375 48.390625 
Q 23.390625 48.390625 19.1875 42.75 
Q 14.984375 37.109375 14.984375 27.296875 
Q 14.984375 17.484375 19.15625 11.84375 
Q 23.34375 6.203125 30.609375 6.203125 
Q 37.796875 6.203125 41.984375 11.859375 
Q 46.1875 17.53125 46.1875 27.296875 
Q 46.1875 37.015625 41.984375 42.703125 
Q 37.796875 48.390625 30.609375 48.390625 
z
M 30.609375 56 
Q 42.328125 56 49.015625 48.375 
Q 55.71875 40.765625 55.71875 27.296875 
Q 55.71875 13.875 49.015625 6.21875 
Q 42.328125 -1.421875 30.609375 -1.421875 
Q 18.84375 -1.421875 12.171875 6.21875 
Q 5.515625 13.875 5.515625 27.296875 
Q 5.515625 40.765625 12.171875 48.375 
Q 18.84375 56 30.609375 56 
z
" id="DejaVuSans-111"/>
       <path d="M 8.5 21.578125 
L 8.5 54.6875 
L 17.484375 54.6875 
L 17.484375 21.921875 
Q 17.484375 14.15625 20.5 10.265625 
Q 23.53125 6.390625 29.59375 6.390625 
Q 36.859375 6.390625 41.078125 11.03125 
Q 45.3125 15.671875 45.3125 23.6875 
L 45.3125 54.6875 
L 54.296875 54.6875 
L 54.296875 0 
L 45.3125 0 
L 45.3125 8.40625 
Q 42.046875 3.421875 37.71875 1 
Q 33.40625 -1.421875 27.6875 -1.421875 
Q 18.265625 -1.421875 13.375 4.4375 
Q 8.5 10.296875 8.5 21.578125 
z
M 31.109375 56 
z
" id="DejaVuSans-117"/>
      </defs>
      <use xlink:href="#DejaVuSans-80"/>
      <use x="58.552734" xlink:href="#DejaVuSans-114"/>
      <use x="97.416016" xlink:href="#DejaVuSans-101"/>
      <use x="158.939453" xlink:href="#DejaVuSans-100"/>
      <use x="222.416016" xlink:href="#DejaVuSans-105"/>
      <use x="250.199219" xlink:href="#DejaVuSans-99"/>
      <use x="305.179688" xlink:href="#DejaVuSans-116"/>
      <use x="344.388672" xlink:href="#DejaVuSans-32"/>
      <use x="376.175781" xlink:href="#DejaVuSans-86"/>
      <use x="436.833984" xlink:href="#DejaVuSans-111"/>
      <use x="498.015625" xlink:href="#DejaVuSans-108"/>
      <use x="525.798828" xlink:href="#DejaVuSans-117"/>
      <use x="589.177734" xlink:href="#DejaVuSans-109"/>
      <use x="686.589844" xlink:href="#DejaVuSans-101"/>
     </g>
    </g>
   </g>
  </g>
 </g>
 <defs>
  <clipPath id="p626638635e">
   <rect height="489.6" width="1116" x="180" y="86.4"/>
  </clipPath>
 </defs>
</svg>
