<?xml version="1.0" encoding="utf-8" standalone="no"?>
<!DOCTYPE svg PUBLIC "-//W3C//DTD SVG 1.1//EN"
  "http://www.w3.org/Graphics/SVG/1.1/DTD/svg11.dtd">
<!-- Created with matplotlib (https://matplotlib.org/) -->
<svg height="720pt" version="1.1" viewBox="0 0 1440 720" width="1440pt" xmlns="http://www.w3.org/2000/svg" xmlns:xlink="http://www.w3.org/1999/xlink">
 <metadata>
  <rdf:RDF xmlns:cc="http://creativecommons.org/ns#" xmlns:dc="http://purl.org/dc/elements/1.1/" xmlns:rdf="http://www.w3.org/1999/02/22-rdf-syntax-ns#">
   <cc:Work>
    <dc:type rdf:resource="http://purl.org/dc/dcmitype/StillImage"/>
    <dc:date>2020-08-06T04:45:40.724632</dc:date>
    <dc:format>image/svg+xml</dc:format>
    <dc:creator>
     <cc:Agent>
      <dc:title>Matplotlib v3.3.0, https://matplotlib.org/</dc:title>
     </cc:Agent>
    </dc:creator>
   </cc:Work>
  </rdf:RDF>
 </metadata>
 <defs>
  <style type="text/css">*{stroke-linecap:butt;stroke-linejoin:round;}</style>
 </defs>
 <g id="figure_1">
  <g id="patch_1">
   <path d="M 0 720 
L 1440 720 
L 1440 0 
L 0 0 
z
" style="fill:#ffffff;"/>
  </g>
  <g id="axes_1">
   <g id="patch_2">
    <path d="M 180 576 
L 1296 576 
L 1296 86.4 
L 180 86.4 
z
" style="fill:#ffffff;"/>
   </g>
   <g id="matplotlib.axis_1">
    <g id="xtick_1">
     <g id="line2d_1">
      <path clip-path="url(#p304fed63f3)" d="M 230.536911 576 
L 230.536911 86.4 
" style="fill:none;stroke:#b0b0b0;stroke-linecap:square;stroke-width:0.8;"/>
     </g>
     <g id="line2d_2">
      <defs>
       <path d="M 0 0 
L 0 3.5 
" id="m0b633416a8" style="stroke:#000000;stroke-width:0.8;"/>
      </defs>
      <g>
       <use style="stroke:#000000;stroke-width:0.8;" x="230.536911" xlink:href="#m0b633416a8" y="576"/>
      </g>
     </g>
     <g id="text_1">
      <!-- 06:00 -->
      <g transform="translate(204.539298 603.989815)rotate(-30)scale(0.1 -0.1)">
       <defs>
        <path d="M 31.78125 66.40625 
Q 24.171875 66.40625 20.328125 58.90625 
Q 16.5 51.421875 16.5 36.375 
Q 16.5 21.390625 20.328125 13.890625 
Q 24.171875 6.390625 31.78125 6.390625 
Q 39.453125 6.390625 43.28125 13.890625 
Q 47.125 21.390625 47.125 36.375 
Q 47.125 51.421875 43.28125 58.90625 
Q 39.453125 66.40625 31.78125 66.40625 
z
M 31.78125 74.21875 
Q 44.046875 74.21875 50.515625 64.515625 
Q 56.984375 54.828125 56.984375 36.375 
Q 56.984375 17.96875 50.515625 8.265625 
Q 44.046875 -1.421875 31.78125 -1.421875 
Q 19.53125 -1.421875 13.0625 8.265625 
Q 6.59375 17.96875 6.59375 36.375 
Q 6.59375 54.828125 13.0625 64.515625 
Q 19.53125 74.21875 31.78125 74.21875 
z
" id="DejaVuSans-48"/>
        <path d="M 33.015625 40.375 
Q 26.375 40.375 22.484375 35.828125 
Q 18.609375 31.296875 18.609375 23.390625 
Q 18.609375 15.53125 22.484375 10.953125 
Q 26.375 6.390625 33.015625 6.390625 
Q 39.65625 6.390625 43.53125 10.953125 
Q 47.40625 15.53125 47.40625 23.390625 
Q 47.40625 31.296875 43.53125 35.828125 
Q 39.65625 40.375 33.015625 40.375 
z
M 52.59375 71.296875 
L 52.59375 62.3125 
Q 48.875 64.0625 45.09375 64.984375 
Q 41.3125 65.921875 37.59375 65.921875 
Q 27.828125 65.921875 22.671875 59.328125 
Q 17.53125 52.734375 16.796875 39.40625 
Q 19.671875 43.65625 24.015625 45.921875 
Q 28.375 48.1875 33.59375 48.1875 
Q 44.578125 48.1875 50.953125 41.515625 
Q 57.328125 34.859375 57.328125 23.390625 
Q 57.328125 12.15625 50.6875 5.359375 
Q 44.046875 -1.421875 33.015625 -1.421875 
Q 20.359375 -1.421875 13.671875 8.265625 
Q 6.984375 17.96875 6.984375 36.375 
Q 6.984375 53.65625 15.1875 63.9375 
Q 23.390625 74.21875 37.203125 74.21875 
Q 40.921875 74.21875 44.703125 73.484375 
Q 48.484375 72.75 52.59375 71.296875 
z
" id="DejaVuSans-54"/>
        <path d="M 11.71875 12.40625 
L 22.015625 12.40625 
L 22.015625 0 
L 11.71875 0 
z
M 11.71875 51.703125 
L 22.015625 51.703125 
L 22.015625 39.3125 
L 11.71875 39.3125 
z
" id="DejaVuSans-58"/>
       </defs>
       <use xlink:href="#DejaVuSans-48"/>
       <use x="63.623047" xlink:href="#DejaVuSans-54"/>
       <use x="127.246094" xlink:href="#DejaVuSans-58"/>
       <use x="160.9375" xlink:href="#DejaVuSans-48"/>
       <use x="224.560547" xlink:href="#DejaVuSans-48"/>
      </g>
     </g>
    </g>
    <g id="xtick_2">
     <g id="line2d_3">
      <path clip-path="url(#p304fed63f3)" d="M 328.252335 576 
L 328.252335 86.4 
" style="fill:none;stroke:#b0b0b0;stroke-linecap:square;stroke-width:0.8;"/>
     </g>
     <g id="line2d_4">
      <g>
       <use style="stroke:#000000;stroke-width:0.8;" x="328.252335" xlink:href="#m0b633416a8" y="576"/>
      </g>
     </g>
     <g id="text_2">
      <!-- 06:01 -->
      <g transform="translate(302.254721 603.989815)rotate(-30)scale(0.1 -0.1)">
       <defs>
        <path d="M 12.40625 8.296875 
L 28.515625 8.296875 
L 28.515625 63.921875 
L 10.984375 60.40625 
L 10.984375 69.390625 
L 28.421875 72.90625 
L 38.28125 72.90625 
L 38.28125 8.296875 
L 54.390625 8.296875 
L 54.390625 0 
L 12.40625 0 
z
" id="DejaVuSans-49"/>
       </defs>
       <use xlink:href="#DejaVuSans-48"/>
       <use x="63.623047" xlink:href="#DejaVuSans-54"/>
       <use x="127.246094" xlink:href="#DejaVuSans-58"/>
       <use x="160.9375" xlink:href="#DejaVuSans-48"/>
       <use x="224.560547" xlink:href="#DejaVuSans-49"/>
      </g>
     </g>
    </g>
    <g id="xtick_3">
     <g id="line2d_5">
      <path clip-path="url(#p304fed63f3)" d="M 425.967773 576 
L 425.967773 86.4 
" style="fill:none;stroke:#b0b0b0;stroke-linecap:square;stroke-width:0.8;"/>
     </g>
     <g id="line2d_6">
      <g>
       <use style="stroke:#000000;stroke-width:0.8;" x="425.967773" xlink:href="#m0b633416a8" y="576"/>
      </g>
     </g>
     <g id="text_3">
      <!-- 06:02 -->
      <g transform="translate(399.97016 603.989815)rotate(-30)scale(0.1 -0.1)">
       <defs>
        <path d="M 19.1875 8.296875 
L 53.609375 8.296875 
L 53.609375 0 
L 7.328125 0 
L 7.328125 8.296875 
Q 12.9375 14.109375 22.625 23.890625 
Q 32.328125 33.6875 34.8125 36.53125 
Q 39.546875 41.84375 41.421875 45.53125 
Q 43.3125 49.21875 43.3125 52.78125 
Q 43.3125 58.59375 39.234375 62.25 
Q 35.15625 65.921875 28.609375 65.921875 
Q 23.96875 65.921875 18.8125 64.3125 
Q 13.671875 62.703125 7.8125 59.421875 
L 7.8125 69.390625 
Q 13.765625 71.78125 18.9375 73 
Q 24.125 74.21875 28.421875 74.21875 
Q 39.75 74.21875 46.484375 68.546875 
Q 53.21875 62.890625 53.21875 53.421875 
Q 53.21875 48.921875 51.53125 44.890625 
Q 49.859375 40.875 45.40625 35.40625 
Q 44.1875 33.984375 37.640625 27.21875 
Q 31.109375 20.453125 19.1875 8.296875 
z
" id="DejaVuSans-50"/>
       </defs>
       <use xlink:href="#DejaVuSans-48"/>
       <use x="63.623047" xlink:href="#DejaVuSans-54"/>
       <use x="127.246094" xlink:href="#DejaVuSans-58"/>
       <use x="160.9375" xlink:href="#DejaVuSans-48"/>
       <use x="224.560547" xlink:href="#DejaVuSans-50"/>
      </g>
     </g>
    </g>
    <g id="xtick_4">
     <g id="line2d_7">
      <path clip-path="url(#p304fed63f3)" d="M 523.683212 576 
L 523.683212 86.4 
" style="fill:none;stroke:#b0b0b0;stroke-linecap:square;stroke-width:0.8;"/>
     </g>
     <g id="line2d_8">
      <g>
       <use style="stroke:#000000;stroke-width:0.8;" x="523.683212" xlink:href="#m0b633416a8" y="576"/>
      </g>
     </g>
     <g id="text_4">
      <!-- 06:03 -->
      <g transform="translate(497.685599 603.989815)rotate(-30)scale(0.1 -0.1)">
       <defs>
        <path d="M 40.578125 39.3125 
Q 47.65625 37.796875 51.625 33 
Q 55.609375 28.21875 55.609375 21.1875 
Q 55.609375 10.40625 48.1875 4.484375 
Q 40.765625 -1.421875 27.09375 -1.421875 
Q 22.515625 -1.421875 17.65625 -0.515625 
Q 12.796875 0.390625 7.625 2.203125 
L 7.625 11.71875 
Q 11.71875 9.328125 16.59375 8.109375 
Q 21.484375 6.890625 26.8125 6.890625 
Q 36.078125 6.890625 40.9375 10.546875 
Q 45.796875 14.203125 45.796875 21.1875 
Q 45.796875 27.640625 41.28125 31.265625 
Q 36.765625 34.90625 28.71875 34.90625 
L 20.21875 34.90625 
L 20.21875 43.015625 
L 29.109375 43.015625 
Q 36.375 43.015625 40.234375 45.921875 
Q 44.09375 48.828125 44.09375 54.296875 
Q 44.09375 59.90625 40.109375 62.90625 
Q 36.140625 65.921875 28.71875 65.921875 
Q 24.65625 65.921875 20.015625 65.03125 
Q 15.375 64.15625 9.8125 62.3125 
L 9.8125 71.09375 
Q 15.4375 72.65625 20.34375 73.4375 
Q 25.25 74.21875 29.59375 74.21875 
Q 40.828125 74.21875 47.359375 69.109375 
Q 53.90625 64.015625 53.90625 55.328125 
Q 53.90625 49.265625 50.4375 45.09375 
Q 46.96875 40.921875 40.578125 39.3125 
z
" id="DejaVuSans-51"/>
       </defs>
       <use xlink:href="#DejaVuSans-48"/>
       <use x="63.623047" xlink:href="#DejaVuSans-54"/>
       <use x="127.246094" xlink:href="#DejaVuSans-58"/>
       <use x="160.9375" xlink:href="#DejaVuSans-48"/>
       <use x="224.560547" xlink:href="#DejaVuSans-51"/>
      </g>
     </g>
    </g>
    <g id="xtick_5">
     <g id="line2d_9">
      <path clip-path="url(#p304fed63f3)" d="M 621.398636 576 
L 621.398636 86.4 
" style="fill:none;stroke:#b0b0b0;stroke-linecap:square;stroke-width:0.8;"/>
     </g>
     <g id="line2d_10">
      <g>
       <use style="stroke:#000000;stroke-width:0.8;" x="621.398636" xlink:href="#m0b633416a8" y="576"/>
      </g>
     </g>
     <g id="text_5">
      <!-- 06:04 -->
      <g transform="translate(595.401023 603.989815)rotate(-30)scale(0.1 -0.1)">
       <defs>
        <path d="M 37.796875 64.3125 
L 12.890625 25.390625 
L 37.796875 25.390625 
z
M 35.203125 72.90625 
L 47.609375 72.90625 
L 47.609375 25.390625 
L 58.015625 25.390625 
L 58.015625 17.1875 
L 47.609375 17.1875 
L 47.609375 0 
L 37.796875 0 
L 37.796875 17.1875 
L 4.890625 17.1875 
L 4.890625 26.703125 
z
" id="DejaVuSans-52"/>
       </defs>
       <use xlink:href="#DejaVuSans-48"/>
       <use x="63.623047" xlink:href="#DejaVuSans-54"/>
       <use x="127.246094" xlink:href="#DejaVuSans-58"/>
       <use x="160.9375" xlink:href="#DejaVuSans-48"/>
       <use x="224.560547" xlink:href="#DejaVuSans-52"/>
      </g>
     </g>
    </g>
    <g id="xtick_6">
     <g id="line2d_11">
      <path clip-path="url(#p304fed63f3)" d="M 719.114075 576 
L 719.114075 86.4 
" style="fill:none;stroke:#b0b0b0;stroke-linecap:square;stroke-width:0.8;"/>
     </g>
     <g id="line2d_12">
      <g>
       <use style="stroke:#000000;stroke-width:0.8;" x="719.114075" xlink:href="#m0b633416a8" y="576"/>
      </g>
     </g>
     <g id="text_6">
      <!-- 06:05 -->
      <g transform="translate(693.116461 603.989815)rotate(-30)scale(0.1 -0.1)">
       <defs>
        <path d="M 10.796875 72.90625 
L 49.515625 72.90625 
L 49.515625 64.59375 
L 19.828125 64.59375 
L 19.828125 46.734375 
Q 21.96875 47.46875 24.109375 47.828125 
Q 26.265625 48.1875 28.421875 48.1875 
Q 40.625 48.1875 47.75 41.5 
Q 54.890625 34.8125 54.890625 23.390625 
Q 54.890625 11.625 47.5625 5.09375 
Q 40.234375 -1.421875 26.90625 -1.421875 
Q 22.3125 -1.421875 17.546875 -0.640625 
Q 12.796875 0.140625 7.71875 1.703125 
L 7.71875 11.625 
Q 12.109375 9.234375 16.796875 8.0625 
Q 21.484375 6.890625 26.703125 6.890625 
Q 35.15625 6.890625 40.078125 11.328125 
Q 45.015625 15.765625 45.015625 23.390625 
Q 45.015625 31 40.078125 35.4375 
Q 35.15625 39.890625 26.703125 39.890625 
Q 22.75 39.890625 18.8125 39.015625 
Q 14.890625 38.140625 10.796875 36.28125 
z
" id="DejaVuSans-53"/>
       </defs>
       <use xlink:href="#DejaVuSans-48"/>
       <use x="63.623047" xlink:href="#DejaVuSans-54"/>
       <use x="127.246094" xlink:href="#DejaVuSans-58"/>
       <use x="160.9375" xlink:href="#DejaVuSans-48"/>
       <use x="224.560547" xlink:href="#DejaVuSans-53"/>
      </g>
     </g>
    </g>
    <g id="xtick_7">
     <g id="line2d_13">
      <path clip-path="url(#p304fed63f3)" d="M 816.829514 576 
L 816.829514 86.4 
" style="fill:none;stroke:#b0b0b0;stroke-linecap:square;stroke-width:0.8;"/>
     </g>
     <g id="line2d_14">
      <g>
       <use style="stroke:#000000;stroke-width:0.8;" x="816.829514" xlink:href="#m0b633416a8" y="576"/>
      </g>
     </g>
     <g id="text_7">
      <!-- 06:06 -->
      <g transform="translate(790.8319 603.989815)rotate(-30)scale(0.1 -0.1)">
       <use xlink:href="#DejaVuSans-48"/>
       <use x="63.623047" xlink:href="#DejaVuSans-54"/>
       <use x="127.246094" xlink:href="#DejaVuSans-58"/>
       <use x="160.9375" xlink:href="#DejaVuSans-48"/>
       <use x="224.560547" xlink:href="#DejaVuSans-54"/>
      </g>
     </g>
    </g>
    <g id="xtick_8">
     <g id="line2d_15">
      <path clip-path="url(#p304fed63f3)" d="M 914.544937 576 
L 914.544937 86.4 
" style="fill:none;stroke:#b0b0b0;stroke-linecap:square;stroke-width:0.8;"/>
     </g>
     <g id="line2d_16">
      <g>
       <use style="stroke:#000000;stroke-width:0.8;" x="914.544937" xlink:href="#m0b633416a8" y="576"/>
      </g>
     </g>
     <g id="text_8">
      <!-- 06:07 -->
      <g transform="translate(888.547324 603.989815)rotate(-30)scale(0.1 -0.1)">
       <defs>
        <path d="M 8.203125 72.90625 
L 55.078125 72.90625 
L 55.078125 68.703125 
L 28.609375 0 
L 18.3125 0 
L 43.21875 64.59375 
L 8.203125 64.59375 
z
" id="DejaVuSans-55"/>
       </defs>
       <use xlink:href="#DejaVuSans-48"/>
       <use x="63.623047" xlink:href="#DejaVuSans-54"/>
       <use x="127.246094" xlink:href="#DejaVuSans-58"/>
       <use x="160.9375" xlink:href="#DejaVuSans-48"/>
       <use x="224.560547" xlink:href="#DejaVuSans-55"/>
      </g>
     </g>
    </g>
    <g id="xtick_9">
     <g id="line2d_17">
      <path clip-path="url(#p304fed63f3)" d="M 1012.260376 576 
L 1012.260376 86.4 
" style="fill:none;stroke:#b0b0b0;stroke-linecap:square;stroke-width:0.8;"/>
     </g>
     <g id="line2d_18">
      <g>
       <use style="stroke:#000000;stroke-width:0.8;" x="1012.260376" xlink:href="#m0b633416a8" y="576"/>
      </g>
     </g>
     <g id="text_9">
      <!-- 06:08 -->
      <g transform="translate(986.262763 603.989815)rotate(-30)scale(0.1 -0.1)">
       <defs>
        <path d="M 31.78125 34.625 
Q 24.75 34.625 20.71875 30.859375 
Q 16.703125 27.09375 16.703125 20.515625 
Q 16.703125 13.921875 20.71875 10.15625 
Q 24.75 6.390625 31.78125 6.390625 
Q 38.8125 6.390625 42.859375 10.171875 
Q 46.921875 13.96875 46.921875 20.515625 
Q 46.921875 27.09375 42.890625 30.859375 
Q 38.875 34.625 31.78125 34.625 
z
M 21.921875 38.8125 
Q 15.578125 40.375 12.03125 44.71875 
Q 8.5 49.078125 8.5 55.328125 
Q 8.5 64.0625 14.71875 69.140625 
Q 20.953125 74.21875 31.78125 74.21875 
Q 42.671875 74.21875 48.875 69.140625 
Q 55.078125 64.0625 55.078125 55.328125 
Q 55.078125 49.078125 51.53125 44.71875 
Q 48 40.375 41.703125 38.8125 
Q 48.828125 37.15625 52.796875 32.3125 
Q 56.78125 27.484375 56.78125 20.515625 
Q 56.78125 9.90625 50.3125 4.234375 
Q 43.84375 -1.421875 31.78125 -1.421875 
Q 19.734375 -1.421875 13.25 4.234375 
Q 6.78125 9.90625 6.78125 20.515625 
Q 6.78125 27.484375 10.78125 32.3125 
Q 14.796875 37.15625 21.921875 38.8125 
z
M 18.3125 54.390625 
Q 18.3125 48.734375 21.84375 45.5625 
Q 25.390625 42.390625 31.78125 42.390625 
Q 38.140625 42.390625 41.71875 45.5625 
Q 45.3125 48.734375 45.3125 54.390625 
Q 45.3125 60.0625 41.71875 63.234375 
Q 38.140625 66.40625 31.78125 66.40625 
Q 25.390625 66.40625 21.84375 63.234375 
Q 18.3125 60.0625 18.3125 54.390625 
z
" id="DejaVuSans-56"/>
       </defs>
       <use xlink:href="#DejaVuSans-48"/>
       <use x="63.623047" xlink:href="#DejaVuSans-54"/>
       <use x="127.246094" xlink:href="#DejaVuSans-58"/>
       <use x="160.9375" xlink:href="#DejaVuSans-48"/>
       <use x="224.560547" xlink:href="#DejaVuSans-56"/>
      </g>
     </g>
    </g>
    <g id="xtick_10">
     <g id="line2d_19">
      <path clip-path="url(#p304fed63f3)" d="M 1109.975815 576 
L 1109.975815 86.4 
" style="fill:none;stroke:#b0b0b0;stroke-linecap:square;stroke-width:0.8;"/>
     </g>
     <g id="line2d_20">
      <g>
       <use style="stroke:#000000;stroke-width:0.8;" x="1109.975815" xlink:href="#m0b633416a8" y="576"/>
      </g>
     </g>
     <g id="text_10">
      <!-- 06:09 -->
      <g transform="translate(1083.978201 603.989815)rotate(-30)scale(0.1 -0.1)">
       <defs>
        <path d="M 10.984375 1.515625 
L 10.984375 10.5 
Q 14.703125 8.734375 18.5 7.8125 
Q 22.3125 6.890625 25.984375 6.890625 
Q 35.75 6.890625 40.890625 13.453125 
Q 46.046875 20.015625 46.78125 33.40625 
Q 43.953125 29.203125 39.59375 26.953125 
Q 35.25 24.703125 29.984375 24.703125 
Q 19.046875 24.703125 12.671875 31.3125 
Q 6.296875 37.9375 6.296875 49.421875 
Q 6.296875 60.640625 12.9375 67.421875 
Q 19.578125 74.21875 30.609375 74.21875 
Q 43.265625 74.21875 49.921875 64.515625 
Q 56.59375 54.828125 56.59375 36.375 
Q 56.59375 19.140625 48.40625 8.859375 
Q 40.234375 -1.421875 26.421875 -1.421875 
Q 22.703125 -1.421875 18.890625 -0.6875 
Q 15.09375 0.046875 10.984375 1.515625 
z
M 30.609375 32.421875 
Q 37.25 32.421875 41.125 36.953125 
Q 45.015625 41.5 45.015625 49.421875 
Q 45.015625 57.28125 41.125 61.84375 
Q 37.25 66.40625 30.609375 66.40625 
Q 23.96875 66.40625 20.09375 61.84375 
Q 16.21875 57.28125 16.21875 49.421875 
Q 16.21875 41.5 20.09375 36.953125 
Q 23.96875 32.421875 30.609375 32.421875 
z
" id="DejaVuSans-57"/>
       </defs>
       <use xlink:href="#DejaVuSans-48"/>
       <use x="63.623047" xlink:href="#DejaVuSans-54"/>
       <use x="127.246094" xlink:href="#DejaVuSans-58"/>
       <use x="160.9375" xlink:href="#DejaVuSans-48"/>
       <use x="224.560547" xlink:href="#DejaVuSans-57"/>
      </g>
     </g>
    </g>
    <g id="xtick_11">
     <g id="line2d_21">
      <path clip-path="url(#p304fed63f3)" d="M 1207.691254 576 
L 1207.691254 86.4 
" style="fill:none;stroke:#b0b0b0;stroke-linecap:square;stroke-width:0.8;"/>
     </g>
     <g id="line2d_22">
      <g>
       <use style="stroke:#000000;stroke-width:0.8;" x="1207.691254" xlink:href="#m0b633416a8" y="576"/>
      </g>
     </g>
     <g id="text_11">
      <!-- 06:10 -->
      <g transform="translate(1181.69364 603.989815)rotate(-30)scale(0.1 -0.1)">
       <use xlink:href="#DejaVuSans-48"/>
       <use x="63.623047" xlink:href="#DejaVuSans-54"/>
       <use x="127.246094" xlink:href="#DejaVuSans-58"/>
       <use x="160.9375" xlink:href="#DejaVuSans-49"/>
       <use x="224.560547" xlink:href="#DejaVuSans-48"/>
      </g>
     </g>
    </g>
    <g id="text_12">
     <!-- time -->
     <g transform="translate(726.703906 617.389315)scale(0.1 -0.1)">
      <defs>
       <path d="M 18.3125 70.21875 
L 18.3125 54.6875 
L 36.8125 54.6875 
L 36.8125 47.703125 
L 18.3125 47.703125 
L 18.3125 18.015625 
Q 18.3125 11.328125 20.140625 9.421875 
Q 21.96875 7.515625 27.59375 7.515625 
L 36.8125 7.515625 
L 36.8125 0 
L 27.59375 0 
Q 17.1875 0 13.234375 3.875 
Q 9.28125 7.765625 9.28125 18.015625 
L 9.28125 47.703125 
L 2.6875 47.703125 
L 2.6875 54.6875 
L 9.28125 54.6875 
L 9.28125 70.21875 
z
" id="DejaVuSans-116"/>
       <path d="M 9.421875 54.6875 
L 18.40625 54.6875 
L 18.40625 0 
L 9.421875 0 
z
M 9.421875 75.984375 
L 18.40625 75.984375 
L 18.40625 64.59375 
L 9.421875 64.59375 
z
" id="DejaVuSans-105"/>
       <path d="M 52 44.1875 
Q 55.375 50.25 60.0625 53.125 
Q 64.75 56 71.09375 56 
Q 79.640625 56 84.28125 50.015625 
Q 88.921875 44.046875 88.921875 33.015625 
L 88.921875 0 
L 79.890625 0 
L 79.890625 32.71875 
Q 79.890625 40.578125 77.09375 44.375 
Q 74.3125 48.1875 68.609375 48.1875 
Q 61.625 48.1875 57.5625 43.546875 
Q 53.515625 38.921875 53.515625 30.90625 
L 53.515625 0 
L 44.484375 0 
L 44.484375 32.71875 
Q 44.484375 40.625 41.703125 44.40625 
Q 38.921875 48.1875 33.109375 48.1875 
Q 26.21875 48.1875 22.15625 43.53125 
Q 18.109375 38.875 18.109375 30.90625 
L 18.109375 0 
L 9.078125 0 
L 9.078125 54.6875 
L 18.109375 54.6875 
L 18.109375 46.1875 
Q 21.1875 51.21875 25.484375 53.609375 
Q 29.78125 56 35.6875 56 
Q 41.65625 56 45.828125 52.96875 
Q 50 49.953125 52 44.1875 
z
" id="DejaVuSans-109"/>
       <path d="M 56.203125 29.59375 
L 56.203125 25.203125 
L 14.890625 25.203125 
Q 15.484375 15.921875 20.484375 11.0625 
Q 25.484375 6.203125 34.421875 6.203125 
Q 39.59375 6.203125 44.453125 7.46875 
Q 49.3125 8.734375 54.109375 11.28125 
L 54.109375 2.78125 
Q 49.265625 0.734375 44.1875 -0.34375 
Q 39.109375 -1.421875 33.890625 -1.421875 
Q 20.796875 -1.421875 13.15625 6.1875 
Q 5.515625 13.8125 5.515625 26.8125 
Q 5.515625 40.234375 12.765625 48.109375 
Q 20.015625 56 32.328125 56 
Q 43.359375 56 49.78125 48.890625 
Q 56.203125 41.796875 56.203125 29.59375 
z
M 47.21875 32.234375 
Q 47.125 39.59375 43.09375 43.984375 
Q 39.0625 48.390625 32.421875 48.390625 
Q 24.90625 48.390625 20.390625 44.140625 
Q 15.875 39.890625 15.1875 32.171875 
z
" id="DejaVuSans-101"/>
      </defs>
      <use xlink:href="#DejaVuSans-116"/>
      <use x="39.208984" xlink:href="#DejaVuSans-105"/>
      <use x="66.992188" xlink:href="#DejaVuSans-109"/>
      <use x="164.404297" xlink:href="#DejaVuSans-101"/>
     </g>
    </g>
   </g>
   <g id="matplotlib.axis_2">
    <g id="ytick_1">
     <g id="line2d_23">
      <defs>
       <path d="M 0 0 
L -3.5 0 
" id="m2a4dce0e01" style="stroke:#000000;stroke-width:0.8;"/>
      </defs>
      <g>
       <use style="stroke:#000000;stroke-width:0.8;" x="180" xlink:href="#m2a4dce0e01" y="553.745455"/>
      </g>
     </g>
     <g id="text_13">
      <!-- 17.15 -->
      <g transform="translate(144.371875 557.544673)scale(0.1 -0.1)">
       <defs>
        <path d="M 10.6875 12.40625 
L 21 12.40625 
L 21 0 
L 10.6875 0 
z
" id="DejaVuSans-46"/>
       </defs>
       <use xlink:href="#DejaVuSans-49"/>
       <use x="63.623047" xlink:href="#DejaVuSans-55"/>
       <use x="127.246094" xlink:href="#DejaVuSans-46"/>
       <use x="159.033203" xlink:href="#DejaVuSans-49"/>
       <use x="222.65625" xlink:href="#DejaVuSans-53"/>
      </g>
     </g>
    </g>
    <g id="ytick_2">
     <g id="line2d_24">
      <g>
       <use style="stroke:#000000;stroke-width:0.8;" x="180" xlink:href="#m2a4dce0e01" y="447.771429"/>
      </g>
     </g>
     <g id="text_14">
      <!-- 17.20 -->
      <g transform="translate(144.371875 451.570647)scale(0.1 -0.1)">
       <use xlink:href="#DejaVuSans-49"/>
       <use x="63.623047" xlink:href="#DejaVuSans-55"/>
       <use x="127.246094" xlink:href="#DejaVuSans-46"/>
       <use x="159.033203" xlink:href="#DejaVuSans-50"/>
       <use x="222.65625" xlink:href="#DejaVuSans-48"/>
      </g>
     </g>
    </g>
    <g id="ytick_3">
     <g id="line2d_25">
      <g>
       <use style="stroke:#000000;stroke-width:0.8;" x="180" xlink:href="#m2a4dce0e01" y="341.797403"/>
      </g>
     </g>
     <g id="text_15">
      <!-- 17.25 -->
      <g transform="translate(144.371875 345.596621)scale(0.1 -0.1)">
       <use xlink:href="#DejaVuSans-49"/>
       <use x="63.623047" xlink:href="#DejaVuSans-55"/>
       <use x="127.246094" xlink:href="#DejaVuSans-46"/>
       <use x="159.033203" xlink:href="#DejaVuSans-50"/>
       <use x="222.65625" xlink:href="#DejaVuSans-53"/>
      </g>
     </g>
    </g>
    <g id="ytick_4">
     <g id="line2d_26">
      <g>
       <use style="stroke:#000000;stroke-width:0.8;" x="180" xlink:href="#m2a4dce0e01" y="235.823377"/>
      </g>
     </g>
     <g id="text_16">
      <!-- 17.30 -->
      <g transform="translate(144.371875 239.622595)scale(0.1 -0.1)">
       <use xlink:href="#DejaVuSans-49"/>
       <use x="63.623047" xlink:href="#DejaVuSans-55"/>
       <use x="127.246094" xlink:href="#DejaVuSans-46"/>
       <use x="159.033203" xlink:href="#DejaVuSans-51"/>
       <use x="222.65625" xlink:href="#DejaVuSans-48"/>
      </g>
     </g>
    </g>
    <g id="ytick_5">
     <g id="line2d_27">
      <g>
       <use style="stroke:#000000;stroke-width:0.8;" x="180" xlink:href="#m2a4dce0e01" y="129.849351"/>
      </g>
     </g>
     <g id="text_17">
      <!-- 17.35 -->
      <g transform="translate(144.371875 133.648569)scale(0.1 -0.1)">
       <use xlink:href="#DejaVuSans-49"/>
       <use x="63.623047" xlink:href="#DejaVuSans-55"/>
       <use x="127.246094" xlink:href="#DejaVuSans-46"/>
       <use x="159.033203" xlink:href="#DejaVuSans-51"/>
       <use x="222.65625" xlink:href="#DejaVuSans-53"/>
      </g>
     </g>
    </g>
   </g>
   <g id="line2d_28">
    <path clip-path="url(#p304fed63f3)" d="M 230.72728 384.187013 
L 231.261429 405.381818 
L 234.510925 405.381818 
L 234.771973 426.576623 
L 234.771973 426.576623 
L 234.946823 447.771429 
L 237.085297 447.771429 
L 237.253677 553.745455 
L 239.027512 532.550649 
L 240.05513 532.550649 
L 240.096695 490.161039 
L 248.818665 490.161039 
L 250.128357 426.576623 
L 258.016251 426.576623 
L 258.016251 426.576623 
L 258.603882 405.381818 
L 270.207962 405.381818 
L 277.817108 341.797403 
L 278.086151 532.550649 
L 279.493332 447.771429 
L 279.519333 490.161039 
L 281.899521 490.161039 
L 281.899521 490.161039 
L 281.978516 341.797403 
L 283.265732 341.797403 
L 283.265732 341.797403 
L 283.312393 384.187013 
L 284.368118 362.992208 
L 285.978043 362.992208 
L 287.614059 405.381818 
L 288.204391 405.381818 
L 288.30162 341.797403 
L 502.012405 341.797403 
L 502.012405 341.797403 
L 508.736099 553.745455 
L 512.845917 553.745455 
L 512.845917 553.745455 
L 516.928085 405.381818 
L 542.290985 405.381818 
L 542.290985 405.381818 
L 542.311005 447.771429 
L 542.311005 447.771429 
L 548.604156 447.771429 
L 551.059982 426.576623 
L 557.227081 426.576623 
L 557.299957 405.381818 
L 557.340469 257.018182 
L 567.405563 257.018182 
L 567.405563 257.018182 
L 591.834656 235.823377 
L 616.264893 235.823377 
L 616.264893 235.823377 
L 616.512497 257.018182 
L 616.824982 172.238961 
L 636.091721 172.238961 
L 636.091721 172.238961 
L 637.188385 151.044156 
L 637.188385 151.044156 
L 638.818375 151.044156 
L 638.818375 151.044156 
L 640.457306 129.849351 
L 640.457306 129.849351 
L 644.896957 129.849351 
L 644.896957 129.849351 
L 665.121826 108.654545 
L 668.586594 108.654545 
L 672.618027 129.849351 
L 672.618027 129.849351 
L 687.655746 129.849351 
L 687.655746 129.849351 
L 691.179092 151.044156 
L 691.179092 151.044156 
L 699.08493 129.849351 
L 699.08493 129.849351 
L 719.222931 129.849351 
L 719.296097 151.044156 
L 719.639908 151.044156 
L 721.372665 235.823377 
L 729.344482 235.823377 
L 735.068375 257.018182 
L 740.036392 257.018182 
L 740.036392 257.018182 
L 749.961823 235.823377 
L 749.961823 235.823377 
L 881.130081 235.823377 
L 913.396988 172.238961 
L 975.15242 193.433766 
L 993.033615 172.238961 
L 1010.8349 214.628571 
L 1014.380188 193.433766 
L 1017.257324 214.628571 
L 1107.937225 214.628571 
L 1110.00351 172.238961 
L 1110.601089 214.628571 
L 1124.283447 214.628571 
L 1124.283447 214.628571 
L 1144.833603 172.238961 
L 1192.941025 172.238961 
L 1192.964615 214.628571 
L 1245.271957 214.628571 
L 1245.271957 214.628571 
L 1245.272736 235.823377 
L 1245.272736 235.823377 
" style="fill:none;stroke:#ff0000;stroke-linecap:square;stroke-width:1.5;"/>
   </g>
   <g id="line2d_29">
    <defs>
     <path d="M 0 -3 
L -3 3 
L 3 3 
z
" id="m43894ced8a" style="stroke:#008000;stroke-linejoin:miter;"/>
    </defs>
    <g clip-path="url(#p304fed63f3)">
     <use style="fill:#008000;stroke:#008000;stroke-linejoin:miter;" x="281.978516" xlink:href="#m43894ced8a" y="341.797403"/>
     <use style="fill:#008000;stroke:#008000;stroke-linejoin:miter;" x="288.30162" xlink:href="#m43894ced8a" y="341.797403"/>
     <use style="fill:#008000;stroke:#008000;stroke-linejoin:miter;" x="516.928085" xlink:href="#m43894ced8a" y="405.381818"/>
     <use style="fill:#008000;stroke:#008000;stroke-linejoin:miter;" x="535.052063" xlink:href="#m43894ced8a" y="405.381818"/>
     <use style="fill:#008000;stroke:#008000;stroke-linejoin:miter;" x="542.311005" xlink:href="#m43894ced8a" y="447.771429"/>
     <use style="fill:#008000;stroke:#008000;stroke-linejoin:miter;" x="567.405563" xlink:href="#m43894ced8a" y="257.018182"/>
     <use style="fill:#008000;stroke:#008000;stroke-linejoin:miter;" x="591.834656" xlink:href="#m43894ced8a" y="235.823377"/>
     <use style="fill:#008000;stroke:#008000;stroke-linejoin:miter;" x="616.264893" xlink:href="#m43894ced8a" y="235.823377"/>
     <use style="fill:#008000;stroke:#008000;stroke-linejoin:miter;" x="640.693726" xlink:href="#m43894ced8a" y="129.849351"/>
     <use style="fill:#008000;stroke:#008000;stroke-linejoin:miter;" x="641.756424" xlink:href="#m43894ced8a" y="129.849351"/>
     <use style="fill:#008000;stroke:#008000;stroke-linejoin:miter;" x="641.758286" xlink:href="#m43894ced8a" y="129.849351"/>
     <use style="fill:#008000;stroke:#008000;stroke-linejoin:miter;" x="665.121826" xlink:href="#m43894ced8a" y="108.654545"/>
     <use style="fill:#008000;stroke:#008000;stroke-linejoin:miter;" x="691.179092" xlink:href="#m43894ced8a" y="151.044156"/>
     <use style="fill:#008000;stroke:#008000;stroke-linejoin:miter;" x="715.607681" xlink:href="#m43894ced8a" y="129.849351"/>
     <use style="fill:#008000;stroke:#008000;stroke-linejoin:miter;" x="740.036392" xlink:href="#m43894ced8a" y="257.018182"/>
     <use style="fill:#008000;stroke:#008000;stroke-linejoin:miter;" x="1070.584305" xlink:href="#m43894ced8a" y="214.628571"/>
     <use style="fill:#008000;stroke:#008000;stroke-linejoin:miter;" x="1152.938828" xlink:href="#m43894ced8a" y="172.238961"/>
     <use style="fill:#008000;stroke:#008000;stroke-linejoin:miter;" x="1187.088333" xlink:href="#m43894ced8a" y="172.238961"/>
     <use style="fill:#008000;stroke:#008000;stroke-linejoin:miter;" x="1210.333908" xlink:href="#m43894ced8a" y="214.628571"/>
     <use style="fill:#008000;stroke:#008000;stroke-linejoin:miter;" x="1225.409836" xlink:href="#m43894ced8a" y="214.628571"/>
     <use style="fill:#008000;stroke:#008000;stroke-linejoin:miter;" x="1243.686737" xlink:href="#m43894ced8a" y="214.628571"/>
    </g>
   </g>
   <g id="line2d_30">
    <defs>
     <path d="M -0 3 
L 3 -3 
L -3 -3 
z
" id="me91456adff" style="stroke:#0000ff;stroke-linejoin:miter;"/>
    </defs>
    <g clip-path="url(#p304fed63f3)">
     <use style="fill:#0000ff;stroke:#0000ff;stroke-linejoin:miter;" x="237.253159" xlink:href="#me91456adff" y="553.745455"/>
     <use style="fill:#0000ff;stroke:#0000ff;stroke-linejoin:miter;" x="278.005417" xlink:href="#me91456adff" y="532.550649"/>
     <use style="fill:#0000ff;stroke:#0000ff;stroke-linejoin:miter;" x="279.519333" xlink:href="#me91456adff" y="490.161039"/>
     <use style="fill:#0000ff;stroke:#0000ff;stroke-linejoin:miter;" x="282.724243" xlink:href="#me91456adff" y="341.797403"/>
     <use style="fill:#0000ff;stroke:#0000ff;stroke-linejoin:miter;" x="287.614059" xlink:href="#me91456adff" y="405.381818"/>
     <use style="fill:#0000ff;stroke:#0000ff;stroke-linejoin:miter;" x="370.314377" xlink:href="#me91456adff" y="341.797403"/>
     <use style="fill:#0000ff;stroke:#0000ff;stroke-linejoin:miter;" x="372.144348" xlink:href="#me91456adff" y="341.797403"/>
     <use style="fill:#0000ff;stroke:#0000ff;stroke-linejoin:miter;" x="508.736099" xlink:href="#me91456adff" y="553.745455"/>
     <use style="fill:#0000ff;stroke:#0000ff;stroke-linejoin:miter;" x="665.423233" xlink:href="#me91456adff" y="108.654545"/>
     <use style="fill:#0000ff;stroke:#0000ff;stroke-linejoin:miter;" x="721.372665" xlink:href="#me91456adff" y="235.823377"/>
     <use style="fill:#0000ff;stroke:#0000ff;stroke-linejoin:miter;" x="788.288452" xlink:href="#me91456adff" y="235.823377"/>
     <use style="fill:#0000ff;stroke:#0000ff;stroke-linejoin:miter;" x="1100.48378" xlink:href="#me91456adff" y="214.628571"/>
     <use style="fill:#0000ff;stroke:#0000ff;stroke-linejoin:miter;" x="1192.961258" xlink:href="#me91456adff" y="214.628571"/>
     <use style="fill:#0000ff;stroke:#0000ff;stroke-linejoin:miter;" x="1206.216751" xlink:href="#me91456adff" y="214.628571"/>
    </g>
   </g>
   <g id="line2d_31">
    <defs>
     <path d="M -3 3 
L 3 -3 
M -3 -3 
L 3 3 
" id="m72c1b37173" style="stroke:#008000;"/>
    </defs>
    <g clip-path="url(#p304fed63f3)">
     <use style="fill:#008000;stroke:#008000;" x="557.834641" xlink:href="#m72c1b37173" y="257.018182"/>
     <use style="fill:#008000;stroke:#008000;" x="557.838074" xlink:href="#m72c1b37173" y="257.018182"/>
     <use style="fill:#008000;stroke:#008000;" x="592.048004" xlink:href="#m72c1b37173" y="235.823377"/>
     <use style="fill:#008000;stroke:#008000;" x="592.049713" xlink:href="#m72c1b37173" y="235.823377"/>
     <use style="fill:#008000;stroke:#008000;" x="617.311111" xlink:href="#m72c1b37173" y="172.238961"/>
     <use style="fill:#008000;stroke:#008000;" x="617.316727" xlink:href="#m72c1b37173" y="172.238961"/>
     <use style="fill:#008000;stroke:#008000;" x="691.179092" xlink:href="#m72c1b37173" y="151.044156"/>
     <use style="fill:#008000;stroke:#008000;" x="715.607681" xlink:href="#m72c1b37173" y="129.849351"/>
     <use style="fill:#008000;stroke:#008000;" x="1245.271149" xlink:href="#m72c1b37173" y="214.628571"/>
     <use style="fill:#008000;stroke:#008000;" x="1245.271744" xlink:href="#m72c1b37173" y="214.628571"/>
     <use style="fill:#008000;stroke:#008000;" x="1245.271744" xlink:href="#m72c1b37173" y="214.628571"/>
    </g>
   </g>
   <g id="line2d_32">
    <defs>
     <path d="M -3 3 
L 3 -3 
M -3 -3 
L 3 3 
" id="m3118aec8e5" style="stroke:#0000ff;"/>
    </defs>
    <g clip-path="url(#p304fed63f3)">
     <use style="fill:#0000ff;stroke:#0000ff;" x="367.186584" xlink:href="#m3118aec8e5" y="341.797403"/>
     <use style="fill:#0000ff;stroke:#0000ff;" x="1199.308716" xlink:href="#m3118aec8e5" y="214.628571"/>
     <use style="fill:#0000ff;stroke:#0000ff;" x="1245.271149" xlink:href="#m3118aec8e5" y="214.628571"/>
     <use style="fill:#0000ff;stroke:#0000ff;" x="1245.271149" xlink:href="#m3118aec8e5" y="214.628571"/>
     <use style="fill:#0000ff;stroke:#0000ff;" x="1245.271149" xlink:href="#m3118aec8e5" y="214.628571"/>
     <use style="fill:#0000ff;stroke:#0000ff;" x="1245.271149" xlink:href="#m3118aec8e5" y="214.628571"/>
     <use style="fill:#0000ff;stroke:#0000ff;" x="1245.271149" xlink:href="#m3118aec8e5" y="214.628571"/>
     <use style="fill:#0000ff;stroke:#0000ff;" x="1245.271149" xlink:href="#m3118aec8e5" y="214.628571"/>
     <use style="fill:#0000ff;stroke:#0000ff;" x="1245.27153" xlink:href="#m3118aec8e5" y="214.628571"/>
     <use style="fill:#0000ff;stroke:#0000ff;" x="1245.27153" xlink:href="#m3118aec8e5" y="214.628571"/>
     <use style="fill:#0000ff;stroke:#0000ff;" x="1245.27153" xlink:href="#m3118aec8e5" y="214.628571"/>
     <use style="fill:#0000ff;stroke:#0000ff;" x="1245.27153" xlink:href="#m3118aec8e5" y="214.628571"/>
     <use style="fill:#0000ff;stroke:#0000ff;" x="1245.271744" xlink:href="#m3118aec8e5" y="214.628571"/>
     <use style="fill:#0000ff;stroke:#0000ff;" x="1245.271957" xlink:href="#m3118aec8e5" y="214.628571"/>
     <use style="fill:#0000ff;stroke:#0000ff;" x="1245.271957" xlink:href="#m3118aec8e5" y="214.628571"/>
    </g>
   </g>
   <g id="patch_3">
    <path d="M 180 576 
L 180 86.4 
" style="fill:none;stroke:#000000;stroke-linecap:square;stroke-linejoin:miter;stroke-width:0.8;"/>
   </g>
   <g id="patch_4">
    <path d="M 1296 576 
L 1296 86.4 
" style="fill:none;stroke:#000000;stroke-linecap:square;stroke-linejoin:miter;stroke-width:0.8;"/>
   </g>
   <g id="patch_5">
    <path d="M 180.000015 576 
L 1296.000015 576 
" style="fill:none;stroke:#000000;stroke-linecap:square;stroke-linejoin:miter;stroke-width:0.8;"/>
   </g>
   <g id="patch_6">
    <path d="M 180.000015 86.4 
L 1296.000015 86.4 
" style="fill:none;stroke:#000000;stroke-linecap:square;stroke-linejoin:miter;stroke-width:0.8;"/>
   </g>
   <g id="legend_1">
    <g id="patch_7">
     <path d="M 1358.8 167.790625 
L 1475.159375 167.790625 
Q 1477.159375 167.790625 1477.159375 165.790625 
L 1477.159375 93.4 
Q 1477.159375 91.4 1475.159375 91.4 
L 1358.8 91.4 
Q 1356.8 91.4 1356.8 93.4 
L 1356.8 165.790625 
Q 1356.8 167.790625 1358.8 167.790625 
z
" style="fill:#ffffff;opacity:0.8;stroke:#cccccc;stroke-linejoin:miter;"/>
    </g>
    <g id="line2d_33">
     <path d="M 1360.8 99.498438 
L 1380.8 99.498438 
" style="fill:none;stroke:#ff0000;stroke-linecap:square;stroke-width:1.5;"/>
    </g>
    <g id="line2d_34"/>
    <g id="text_18">
     <!-- Predict Price -->
     <g transform="translate(1388.8 102.998438)scale(0.1 -0.1)">
      <defs>
       <path d="M 19.671875 64.796875 
L 19.671875 37.40625 
L 32.078125 37.40625 
Q 38.96875 37.40625 42.71875 40.96875 
Q 46.484375 44.53125 46.484375 51.125 
Q 46.484375 57.671875 42.71875 61.234375 
Q 38.96875 64.796875 32.078125 64.796875 
z
M 9.8125 72.90625 
L 32.078125 72.90625 
Q 44.34375 72.90625 50.609375 67.359375 
Q 56.890625 61.8125 56.890625 51.125 
Q 56.890625 40.328125 50.609375 34.8125 
Q 44.34375 29.296875 32.078125 29.296875 
L 19.671875 29.296875 
L 19.671875 0 
L 9.8125 0 
z
" id="DejaVuSans-80"/>
       <path d="M 41.109375 46.296875 
Q 39.59375 47.171875 37.8125 47.578125 
Q 36.03125 48 33.890625 48 
Q 26.265625 48 22.1875 43.046875 
Q 18.109375 38.09375 18.109375 28.8125 
L 18.109375 0 
L 9.078125 0 
L 9.078125 54.6875 
L 18.109375 54.6875 
L 18.109375 46.1875 
Q 20.953125 51.171875 25.484375 53.578125 
Q 30.03125 56 36.53125 56 
Q 37.453125 56 38.578125 55.875 
Q 39.703125 55.765625 41.0625 55.515625 
z
" id="DejaVuSans-114"/>
       <path d="M 45.40625 46.390625 
L 45.40625 75.984375 
L 54.390625 75.984375 
L 54.390625 0 
L 45.40625 0 
L 45.40625 8.203125 
Q 42.578125 3.328125 38.25 0.953125 
Q 33.9375 -1.421875 27.875 -1.421875 
Q 17.96875 -1.421875 11.734375 6.484375 
Q 5.515625 14.40625 5.515625 27.296875 
Q 5.515625 40.1875 11.734375 48.09375 
Q 17.96875 56 27.875 56 
Q 33.9375 56 38.25 53.625 
Q 42.578125 51.265625 45.40625 46.390625 
z
M 14.796875 27.296875 
Q 14.796875 17.390625 18.875 11.75 
Q 22.953125 6.109375 30.078125 6.109375 
Q 37.203125 6.109375 41.296875 11.75 
Q 45.40625 17.390625 45.40625 27.296875 
Q 45.40625 37.203125 41.296875 42.84375 
Q 37.203125 48.484375 30.078125 48.484375 
Q 22.953125 48.484375 18.875 42.84375 
Q 14.796875 37.203125 14.796875 27.296875 
z
" id="DejaVuSans-100"/>
       <path d="M 48.78125 52.59375 
L 48.78125 44.1875 
Q 44.96875 46.296875 41.140625 47.34375 
Q 37.3125 48.390625 33.40625 48.390625 
Q 24.65625 48.390625 19.8125 42.84375 
Q 14.984375 37.3125 14.984375 27.296875 
Q 14.984375 17.28125 19.8125 11.734375 
Q 24.65625 6.203125 33.40625 6.203125 
Q 37.3125 6.203125 41.140625 7.25 
Q 44.96875 8.296875 48.78125 10.40625 
L 48.78125 2.09375 
Q 45.015625 0.34375 40.984375 -0.53125 
Q 36.96875 -1.421875 32.421875 -1.421875 
Q 20.0625 -1.421875 12.78125 6.34375 
Q 5.515625 14.109375 5.515625 27.296875 
Q 5.515625 40.671875 12.859375 48.328125 
Q 20.21875 56 33.015625 56 
Q 37.15625 56 41.109375 55.140625 
Q 45.0625 54.296875 48.78125 52.59375 
z
" id="DejaVuSans-99"/>
       <path id="DejaVuSans-32"/>
      </defs>
      <use xlink:href="#DejaVuSans-80"/>
      <use x="58.552734" xlink:href="#DejaVuSans-114"/>
      <use x="97.416016" xlink:href="#DejaVuSans-101"/>
      <use x="158.939453" xlink:href="#DejaVuSans-100"/>
      <use x="222.416016" xlink:href="#DejaVuSans-105"/>
      <use x="250.199219" xlink:href="#DejaVuSans-99"/>
      <use x="305.179688" xlink:href="#DejaVuSans-116"/>
      <use x="344.388672" xlink:href="#DejaVuSans-32"/>
      <use x="376.175781" xlink:href="#DejaVuSans-80"/>
      <use x="434.728516" xlink:href="#DejaVuSans-114"/>
      <use x="475.841797" xlink:href="#DejaVuSans-105"/>
      <use x="503.625" xlink:href="#DejaVuSans-99"/>
      <use x="558.605469" xlink:href="#DejaVuSans-101"/>
     </g>
    </g>
    <g id="line2d_35"/>
    <g id="line2d_36">
     <g>
      <use style="fill:#008000;stroke:#008000;stroke-linejoin:miter;" x="1370.8" xlink:href="#m43894ced8a" y="114.176563"/>
     </g>
    </g>
    <g id="text_19">
     <!-- Large Bid Insert -->
     <g transform="translate(1388.8 117.676563)scale(0.1 -0.1)">
      <defs>
       <path d="M 9.8125 72.90625 
L 19.671875 72.90625 
L 19.671875 8.296875 
L 55.171875 8.296875 
L 55.171875 0 
L 9.8125 0 
z
" id="DejaVuSans-76"/>
       <path d="M 34.28125 27.484375 
Q 23.390625 27.484375 19.1875 25 
Q 14.984375 22.515625 14.984375 16.5 
Q 14.984375 11.71875 18.140625 8.90625 
Q 21.296875 6.109375 26.703125 6.109375 
Q 34.1875 6.109375 38.703125 11.40625 
Q 43.21875 16.703125 43.21875 25.484375 
L 43.21875 27.484375 
z
M 52.203125 31.203125 
L 52.203125 0 
L 43.21875 0 
L 43.21875 8.296875 
Q 40.140625 3.328125 35.546875 0.953125 
Q 30.953125 -1.421875 24.3125 -1.421875 
Q 15.921875 -1.421875 10.953125 3.296875 
Q 6 8.015625 6 15.921875 
Q 6 25.140625 12.171875 29.828125 
Q 18.359375 34.515625 30.609375 34.515625 
L 43.21875 34.515625 
L 43.21875 35.40625 
Q 43.21875 41.609375 39.140625 45 
Q 35.0625 48.390625 27.6875 48.390625 
Q 23 48.390625 18.546875 47.265625 
Q 14.109375 46.140625 10.015625 43.890625 
L 10.015625 52.203125 
Q 14.9375 54.109375 19.578125 55.046875 
Q 24.21875 56 28.609375 56 
Q 40.484375 56 46.34375 49.84375 
Q 52.203125 43.703125 52.203125 31.203125 
z
" id="DejaVuSans-97"/>
       <path d="M 45.40625 27.984375 
Q 45.40625 37.75 41.375 43.109375 
Q 37.359375 48.484375 30.078125 48.484375 
Q 22.859375 48.484375 18.828125 43.109375 
Q 14.796875 37.75 14.796875 27.984375 
Q 14.796875 18.265625 18.828125 12.890625 
Q 22.859375 7.515625 30.078125 7.515625 
Q 37.359375 7.515625 41.375 12.890625 
Q 45.40625 18.265625 45.40625 27.984375 
z
M 54.390625 6.78125 
Q 54.390625 -7.171875 48.1875 -13.984375 
Q 42 -20.796875 29.203125 -20.796875 
Q 24.46875 -20.796875 20.265625 -20.09375 
Q 16.0625 -19.390625 12.109375 -17.921875 
L 12.109375 -9.1875 
Q 16.0625 -11.328125 19.921875 -12.34375 
Q 23.78125 -13.375 27.78125 -13.375 
Q 36.625 -13.375 41.015625 -8.765625 
Q 45.40625 -4.15625 45.40625 5.171875 
L 45.40625 9.625 
Q 42.625 4.78125 38.28125 2.390625 
Q 33.9375 0 27.875 0 
Q 17.828125 0 11.671875 7.65625 
Q 5.515625 15.328125 5.515625 27.984375 
Q 5.515625 40.671875 11.671875 48.328125 
Q 17.828125 56 27.875 56 
Q 33.9375 56 38.28125 53.609375 
Q 42.625 51.21875 45.40625 46.390625 
L 45.40625 54.6875 
L 54.390625 54.6875 
z
" id="DejaVuSans-103"/>
       <path d="M 19.671875 34.8125 
L 19.671875 8.109375 
L 35.5 8.109375 
Q 43.453125 8.109375 47.28125 11.40625 
Q 51.125 14.703125 51.125 21.484375 
Q 51.125 28.328125 47.28125 31.5625 
Q 43.453125 34.8125 35.5 34.8125 
z
M 19.671875 64.796875 
L 19.671875 42.828125 
L 34.28125 42.828125 
Q 41.5 42.828125 45.03125 45.53125 
Q 48.578125 48.25 48.578125 53.8125 
Q 48.578125 59.328125 45.03125 62.0625 
Q 41.5 64.796875 34.28125 64.796875 
z
M 9.8125 72.90625 
L 35.015625 72.90625 
Q 46.296875 72.90625 52.390625 68.21875 
Q 58.5 63.53125 58.5 54.890625 
Q 58.5 48.1875 55.375 44.234375 
Q 52.25 40.28125 46.1875 39.3125 
Q 53.46875 37.75 57.5 32.78125 
Q 61.53125 27.828125 61.53125 20.40625 
Q 61.53125 10.640625 54.890625 5.3125 
Q 48.25 0 35.984375 0 
L 9.8125 0 
z
" id="DejaVuSans-66"/>
       <path d="M 9.8125 72.90625 
L 19.671875 72.90625 
L 19.671875 0 
L 9.8125 0 
z
" id="DejaVuSans-73"/>
       <path d="M 54.890625 33.015625 
L 54.890625 0 
L 45.90625 0 
L 45.90625 32.71875 
Q 45.90625 40.484375 42.875 44.328125 
Q 39.84375 48.1875 33.796875 48.1875 
Q 26.515625 48.1875 22.3125 43.546875 
Q 18.109375 38.921875 18.109375 30.90625 
L 18.109375 0 
L 9.078125 0 
L 9.078125 54.6875 
L 18.109375 54.6875 
L 18.109375 46.1875 
Q 21.34375 51.125 25.703125 53.5625 
Q 30.078125 56 35.796875 56 
Q 45.21875 56 50.046875 50.171875 
Q 54.890625 44.34375 54.890625 33.015625 
z
" id="DejaVuSans-110"/>
       <path d="M 44.28125 53.078125 
L 44.28125 44.578125 
Q 40.484375 46.53125 36.375 47.5 
Q 32.28125 48.484375 27.875 48.484375 
Q 21.1875 48.484375 17.84375 46.4375 
Q 14.5 44.390625 14.5 40.28125 
Q 14.5 37.15625 16.890625 35.375 
Q 19.28125 33.59375 26.515625 31.984375 
L 29.59375 31.296875 
Q 39.15625 29.25 43.1875 25.515625 
Q 47.21875 21.78125 47.21875 15.09375 
Q 47.21875 7.46875 41.1875 3.015625 
Q 35.15625 -1.421875 24.609375 -1.421875 
Q 20.21875 -1.421875 15.453125 -0.5625 
Q 10.6875 0.296875 5.421875 2 
L 5.421875 11.28125 
Q 10.40625 8.6875 15.234375 7.390625 
Q 20.0625 6.109375 24.8125 6.109375 
Q 31.15625 6.109375 34.5625 8.28125 
Q 37.984375 10.453125 37.984375 14.40625 
Q 37.984375 18.0625 35.515625 20.015625 
Q 33.0625 21.96875 24.703125 23.78125 
L 21.578125 24.515625 
Q 13.234375 26.265625 9.515625 29.90625 
Q 5.8125 33.546875 5.8125 39.890625 
Q 5.8125 47.609375 11.28125 51.796875 
Q 16.75 56 26.8125 56 
Q 31.78125 56 36.171875 55.265625 
Q 40.578125 54.546875 44.28125 53.078125 
z
" id="DejaVuSans-115"/>
      </defs>
      <use xlink:href="#DejaVuSans-76"/>
      <use x="55.712891" xlink:href="#DejaVuSans-97"/>
      <use x="116.992188" xlink:href="#DejaVuSans-114"/>
      <use x="156.355469" xlink:href="#DejaVuSans-103"/>
      <use x="219.832031" xlink:href="#DejaVuSans-101"/>
      <use x="281.355469" xlink:href="#DejaVuSans-32"/>
      <use x="313.142578" xlink:href="#DejaVuSans-66"/>
      <use x="381.746094" xlink:href="#DejaVuSans-105"/>
      <use x="409.529297" xlink:href="#DejaVuSans-100"/>
      <use x="473.005859" xlink:href="#DejaVuSans-32"/>
      <use x="504.792969" xlink:href="#DejaVuSans-73"/>
      <use x="534.285156" xlink:href="#DejaVuSans-110"/>
      <use x="597.664062" xlink:href="#DejaVuSans-115"/>
      <use x="649.763672" xlink:href="#DejaVuSans-101"/>
      <use x="711.287109" xlink:href="#DejaVuSans-114"/>
      <use x="752.400391" xlink:href="#DejaVuSans-116"/>
     </g>
    </g>
    <g id="line2d_37"/>
    <g id="line2d_38">
     <g>
      <use style="fill:#0000ff;stroke:#0000ff;stroke-linejoin:miter;" x="1370.8" xlink:href="#me91456adff" y="128.854688"/>
     </g>
    </g>
    <g id="text_20">
     <!-- Large Ask Insert -->
     <g transform="translate(1388.8 132.354688)scale(0.1 -0.1)">
      <defs>
       <path d="M 34.1875 63.1875 
L 20.796875 26.90625 
L 47.609375 26.90625 
z
M 28.609375 72.90625 
L 39.796875 72.90625 
L 67.578125 0 
L 57.328125 0 
L 50.6875 18.703125 
L 17.828125 18.703125 
L 11.1875 0 
L 0.78125 0 
z
" id="DejaVuSans-65"/>
       <path d="M 9.078125 75.984375 
L 18.109375 75.984375 
L 18.109375 31.109375 
L 44.921875 54.6875 
L 56.390625 54.6875 
L 27.390625 29.109375 
L 57.625 0 
L 45.90625 0 
L 18.109375 26.703125 
L 18.109375 0 
L 9.078125 0 
z
" id="DejaVuSans-107"/>
      </defs>
      <use xlink:href="#DejaVuSans-76"/>
      <use x="55.712891" xlink:href="#DejaVuSans-97"/>
      <use x="116.992188" xlink:href="#DejaVuSans-114"/>
      <use x="156.355469" xlink:href="#DejaVuSans-103"/>
      <use x="219.832031" xlink:href="#DejaVuSans-101"/>
      <use x="281.355469" xlink:href="#DejaVuSans-32"/>
      <use x="313.142578" xlink:href="#DejaVuSans-65"/>
      <use x="381.550781" xlink:href="#DejaVuSans-115"/>
      <use x="433.650391" xlink:href="#DejaVuSans-107"/>
      <use x="491.560547" xlink:href="#DejaVuSans-32"/>
      <use x="523.347656" xlink:href="#DejaVuSans-73"/>
      <use x="552.839844" xlink:href="#DejaVuSans-110"/>
      <use x="616.21875" xlink:href="#DejaVuSans-115"/>
      <use x="668.318359" xlink:href="#DejaVuSans-101"/>
      <use x="729.841797" xlink:href="#DejaVuSans-114"/>
      <use x="770.955078" xlink:href="#DejaVuSans-116"/>
     </g>
    </g>
    <g id="line2d_39"/>
    <g id="line2d_40">
     <g>
      <use style="fill:#008000;stroke:#008000;" x="1370.8" xlink:href="#m72c1b37173" y="143.532812"/>
     </g>
    </g>
    <g id="text_21">
     <!-- Large Bid Cancel -->
     <g transform="translate(1388.8 147.032812)scale(0.1 -0.1)">
      <defs>
       <path d="M 64.40625 67.28125 
L 64.40625 56.890625 
Q 59.421875 61.53125 53.78125 63.8125 
Q 48.140625 66.109375 41.796875 66.109375 
Q 29.296875 66.109375 22.65625 58.46875 
Q 16.015625 50.828125 16.015625 36.375 
Q 16.015625 21.96875 22.65625 14.328125 
Q 29.296875 6.6875 41.796875 6.6875 
Q 48.140625 6.6875 53.78125 8.984375 
Q 59.421875 11.28125 64.40625 15.921875 
L 64.40625 5.609375 
Q 59.234375 2.09375 53.4375 0.328125 
Q 47.65625 -1.421875 41.21875 -1.421875 
Q 24.65625 -1.421875 15.125 8.703125 
Q 5.609375 18.84375 5.609375 36.375 
Q 5.609375 53.953125 15.125 64.078125 
Q 24.65625 74.21875 41.21875 74.21875 
Q 47.75 74.21875 53.53125 72.484375 
Q 59.328125 70.75 64.40625 67.28125 
z
" id="DejaVuSans-67"/>
       <path d="M 9.421875 75.984375 
L 18.40625 75.984375 
L 18.40625 0 
L 9.421875 0 
z
" id="DejaVuSans-108"/>
      </defs>
      <use xlink:href="#DejaVuSans-76"/>
      <use x="55.712891" xlink:href="#DejaVuSans-97"/>
      <use x="116.992188" xlink:href="#DejaVuSans-114"/>
      <use x="156.355469" xlink:href="#DejaVuSans-103"/>
      <use x="219.832031" xlink:href="#DejaVuSans-101"/>
      <use x="281.355469" xlink:href="#DejaVuSans-32"/>
      <use x="313.142578" xlink:href="#DejaVuSans-66"/>
      <use x="381.746094" xlink:href="#DejaVuSans-105"/>
      <use x="409.529297" xlink:href="#DejaVuSans-100"/>
      <use x="473.005859" xlink:href="#DejaVuSans-32"/>
      <use x="504.792969" xlink:href="#DejaVuSans-67"/>
      <use x="574.617188" xlink:href="#DejaVuSans-97"/>
      <use x="635.896484" xlink:href="#DejaVuSans-110"/>
      <use x="699.275391" xlink:href="#DejaVuSans-99"/>
      <use x="754.255859" xlink:href="#DejaVuSans-101"/>
      <use x="815.779297" xlink:href="#DejaVuSans-108"/>
     </g>
    </g>
    <g id="line2d_41"/>
    <g id="line2d_42">
     <g>
      <use style="fill:#0000ff;stroke:#0000ff;" x="1370.8" xlink:href="#m3118aec8e5" y="158.210938"/>
     </g>
    </g>
    <g id="text_22">
     <!-- Large Bid Cancel -->
     <g transform="translate(1388.8 161.710938)scale(0.1 -0.1)">
      <use xlink:href="#DejaVuSans-76"/>
      <use x="55.712891" xlink:href="#DejaVuSans-97"/>
      <use x="116.992188" xlink:href="#DejaVuSans-114"/>
      <use x="156.355469" xlink:href="#DejaVuSans-103"/>
      <use x="219.832031" xlink:href="#DejaVuSans-101"/>
      <use x="281.355469" xlink:href="#DejaVuSans-32"/>
      <use x="313.142578" xlink:href="#DejaVuSans-66"/>
      <use x="381.746094" xlink:href="#DejaVuSans-105"/>
      <use x="409.529297" xlink:href="#DejaVuSans-100"/>
      <use x="473.005859" xlink:href="#DejaVuSans-32"/>
      <use x="504.792969" xlink:href="#DejaVuSans-67"/>
      <use x="574.617188" xlink:href="#DejaVuSans-97"/>
      <use x="635.896484" xlink:href="#DejaVuSans-110"/>
      <use x="699.275391" xlink:href="#DejaVuSans-99"/>
      <use x="754.255859" xlink:href="#DejaVuSans-101"/>
      <use x="815.779297" xlink:href="#DejaVuSans-108"/>
     </g>
    </g>
   </g>
  </g>
  <g id="axes_2">
   <g id="matplotlib.axis_3">
    <g id="ytick_6">
     <g id="line2d_43">
      <defs>
       <path d="M 0 0 
L 3.5 0 
" id="m4a08639ba4" style="stroke:#000000;stroke-width:0.8;"/>
      </defs>
      <g>
       <use style="stroke:#000000;stroke-width:0.8;" x="1296" xlink:href="#m4a08639ba4" y="568.659295"/>
      </g>
     </g>
     <g id="text_23">
      <!-- 0 -->
      <g transform="translate(1303 572.458514)scale(0.1 -0.1)">
       <use xlink:href="#DejaVuSans-48"/>
      </g>
     </g>
    </g>
    <g id="ytick_7">
     <g id="line2d_44">
      <g>
       <use style="stroke:#000000;stroke-width:0.8;" x="1296" xlink:href="#m4a08639ba4" y="506.043457"/>
      </g>
     </g>
     <g id="text_24">
      <!-- 50000 -->
      <g transform="translate(1303 509.842676)scale(0.1 -0.1)">
       <use xlink:href="#DejaVuSans-53"/>
       <use x="63.623047" xlink:href="#DejaVuSans-48"/>
       <use x="127.246094" xlink:href="#DejaVuSans-48"/>
       <use x="190.869141" xlink:href="#DejaVuSans-48"/>
       <use x="254.492188" xlink:href="#DejaVuSans-48"/>
      </g>
     </g>
    </g>
    <g id="ytick_8">
     <g id="line2d_45">
      <g>
       <use style="stroke:#000000;stroke-width:0.8;" x="1296" xlink:href="#m4a08639ba4" y="443.427619"/>
      </g>
     </g>
     <g id="text_25">
      <!-- 100000 -->
      <g transform="translate(1303 447.226838)scale(0.1 -0.1)">
       <use xlink:href="#DejaVuSans-49"/>
       <use x="63.623047" xlink:href="#DejaVuSans-48"/>
       <use x="127.246094" xlink:href="#DejaVuSans-48"/>
       <use x="190.869141" xlink:href="#DejaVuSans-48"/>
       <use x="254.492188" xlink:href="#DejaVuSans-48"/>
       <use x="318.115234" xlink:href="#DejaVuSans-48"/>
      </g>
     </g>
    </g>
    <g id="ytick_9">
     <g id="line2d_46">
      <g>
       <use style="stroke:#000000;stroke-width:0.8;" x="1296" xlink:href="#m4a08639ba4" y="380.811781"/>
      </g>
     </g>
     <g id="text_26">
      <!-- 150000 -->
      <g transform="translate(1303 384.611)scale(0.1 -0.1)">
       <use xlink:href="#DejaVuSans-49"/>
       <use x="63.623047" xlink:href="#DejaVuSans-53"/>
       <use x="127.246094" xlink:href="#DejaVuSans-48"/>
       <use x="190.869141" xlink:href="#DejaVuSans-48"/>
       <use x="254.492188" xlink:href="#DejaVuSans-48"/>
       <use x="318.115234" xlink:href="#DejaVuSans-48"/>
      </g>
     </g>
    </g>
    <g id="ytick_10">
     <g id="line2d_47">
      <g>
       <use style="stroke:#000000;stroke-width:0.8;" x="1296" xlink:href="#m4a08639ba4" y="318.195943"/>
      </g>
     </g>
     <g id="text_27">
      <!-- 200000 -->
      <g transform="translate(1303 321.995162)scale(0.1 -0.1)">
       <use xlink:href="#DejaVuSans-50"/>
       <use x="63.623047" xlink:href="#DejaVuSans-48"/>
       <use x="127.246094" xlink:href="#DejaVuSans-48"/>
       <use x="190.869141" xlink:href="#DejaVuSans-48"/>
       <use x="254.492188" xlink:href="#DejaVuSans-48"/>
       <use x="318.115234" xlink:href="#DejaVuSans-48"/>
      </g>
     </g>
    </g>
    <g id="ytick_11">
     <g id="line2d_48">
      <g>
       <use style="stroke:#000000;stroke-width:0.8;" x="1296" xlink:href="#m4a08639ba4" y="255.580105"/>
      </g>
     </g>
     <g id="text_28">
      <!-- 250000 -->
      <g transform="translate(1303 259.379323)scale(0.1 -0.1)">
       <use xlink:href="#DejaVuSans-50"/>
       <use x="63.623047" xlink:href="#DejaVuSans-53"/>
       <use x="127.246094" xlink:href="#DejaVuSans-48"/>
       <use x="190.869141" xlink:href="#DejaVuSans-48"/>
       <use x="254.492188" xlink:href="#DejaVuSans-48"/>
       <use x="318.115234" xlink:href="#DejaVuSans-48"/>
      </g>
     </g>
    </g>
    <g id="ytick_12">
     <g id="line2d_49">
      <g>
       <use style="stroke:#000000;stroke-width:0.8;" x="1296" xlink:href="#m4a08639ba4" y="192.964267"/>
      </g>
     </g>
     <g id="text_29">
      <!-- 300000 -->
      <g transform="translate(1303 196.763485)scale(0.1 -0.1)">
       <use xlink:href="#DejaVuSans-51"/>
       <use x="63.623047" xlink:href="#DejaVuSans-48"/>
       <use x="127.246094" xlink:href="#DejaVuSans-48"/>
       <use x="190.869141" xlink:href="#DejaVuSans-48"/>
       <use x="254.492188" xlink:href="#DejaVuSans-48"/>
       <use x="318.115234" xlink:href="#DejaVuSans-48"/>
      </g>
     </g>
    </g>
    <g id="ytick_13">
     <g id="line2d_50">
      <g>
       <use style="stroke:#000000;stroke-width:0.8;" x="1296" xlink:href="#m4a08639ba4" y="130.348429"/>
      </g>
     </g>
     <g id="text_30">
      <!-- 350000 -->
      <g transform="translate(1303 134.147647)scale(0.1 -0.1)">
       <use xlink:href="#DejaVuSans-51"/>
       <use x="63.623047" xlink:href="#DejaVuSans-53"/>
       <use x="127.246094" xlink:href="#DejaVuSans-48"/>
       <use x="190.869141" xlink:href="#DejaVuSans-48"/>
       <use x="254.492188" xlink:href="#DejaVuSans-48"/>
       <use x="318.115234" xlink:href="#DejaVuSans-48"/>
      </g>
     </g>
    </g>
   </g>
   <g id="line2d_51">
    <path clip-path="url(#p304fed63f3)" d="M 230.72728 530.798002 
L 232.182449 528.580149 
L 233.018692 528.550094 
L 234.013321 528.714147 
L 234.20134 532.786681 
L 234.494522 534.181762 
L 234.510925 535.576843 
L 234.771973 536.460979 
L 234.771973 536.460979 
L 234.852798 537.579297 
L 234.946823 536.507314 
L 235.341537 536.507314 
L 235.465042 536.246832 
L 237.075699 536.199244 
L 237.253159 498.729927 
L 237.253677 506.739745 
L 239.027512 506.53186 
L 239.157196 506.320219 
L 239.157379 503.268323 
L 240.05513 502.565773 
L 240.096695 501.635302 
L 246.861923 501.635302 
L 248.818665 501.367306 
L 250.128357 500.248987 
L 258.016251 500.248987 
L 258.016251 500.248987 
L 258.603882 493.095754 
L 258.812866 493.095754 
L 258.812866 493.095754 
L 270.207962 492.877851 
L 277.817108 490.086437 
L 278.086151 449.859518 
L 279.493332 449.816939 
L 279.519333 445.609155 
L 281.406693 442.652435 
L 281.899521 442.652435 
L 281.899521 442.652435 
L 281.978516 431.660851 
L 283.312393 431.660851 
L 284.368118 431.129868 
L 285.978043 431.013403 
L 288.204391 431.013403 
L 288.30162 402.609606 
L 289.257965 402.418002 
L 290.872284 386.938114 
L 307.750488 386.847948 
L 307.750488 386.847948 
L 316.190918 388.981895 
L 330.757996 388.981895 
L 334.820587 388.81659 
L 336.091232 399.383638 
L 336.429596 407.675228 
L 336.429596 407.675228 
L 337.1745 411.448458 
L 337.1745 411.448458 
L 342.964966 411.04396 
L 343.537231 417.955496 
L 355.896637 422.222139 
L 357.612228 422.222139 
L 358.343536 421.971676 
L 359.216614 421.791342 
L 367.186584 421.569682 
L 367.186584 421.569682 
L 371.209625 421.595981 
L 371.217072 421.684895 
L 372.144348 421.684895 
L 372.144348 421.684895 
L 373.877655 408.804817 
L 376.868301 408.804817 
L 379.848145 398.145097 
L 380.387634 397.997324 
L 416.924728 397.823252 
L 439.069 400.803766 
L 439.069 400.803766 
L 454.216583 400.509471 
L 457.4673 400.201401 
L 458.964294 399.897088 
L 458.965042 399.597785 
L 459.143723 399.284705 
L 462.556229 399.228351 
L 462.585083 399.139437 
L 467.504791 399.139437 
L 495.850433 396.634803 
L 502.012405 396.634803 
L 502.012405 396.634803 
L 508.736099 333.960106 
L 512.845917 333.960106 
L 512.845917 333.960106 
L 516.928085 301.471252 
L 517.093964 301.471252 
L 517.093964 301.471252 
L 531.431458 301.359796 
L 535.052063 301.193238 
L 542.290985 301.193238 
L 542.290985 301.193238 
L 542.311005 307.516185 
L 542.311005 307.516185 
L 542.840607 307.516185 
L 542.840607 307.516185 
L 548.604156 315.815289 
L 551.059982 314.69697 
L 557.227081 314.69697 
L 557.299957 314.182268 
L 557.340469 303.555108 
L 567.405563 303.555108 
L 567.405563 303.555108 
L 592.049713 293.353735 
L 592.049713 293.353735 
L 616.264893 293.353735 
L 616.264893 293.353735 
L 616.512497 300.643471 
L 616.824982 268.609208 
L 624.665924 268.609208 
L 624.665924 268.609208 
L 631.469467 268.82085 
L 631.475418 268.609208 
L 635.55899 264.422713 
L 636.091721 264.422713 
L 636.091721 264.422713 
L 637.188385 260.234966 
L 637.188385 260.234966 
L 640.457306 251.860724 
L 640.457306 251.860724 
L 641.758286 251.860724 
L 641.758286 251.860724 
L 644.896957 247.672977 
L 644.896957 247.672977 
L 665.345871 237.829767 
L 665.345871 237.829767 
L 665.423233 237.829767 
L 665.423233 237.829767 
L 668.586594 237.941223 
L 672.614563 239.475311 
L 672.614563 239.475311 
L 672.618027 252.104926 
L 672.618027 252.104926 
L 687.655746 252.104926 
L 687.655746 252.104926 
L 691.179092 253.006594 
L 691.179092 253.006594 
L 699.08493 248.818847 
L 699.08493 248.818847 
L 702.988571 248.70739 
L 715.607681 247.805722 
L 715.607681 247.805722 
L 719.296097 247.098163 
L 719.639908 246.736244 
L 721.372665 246.423165 
L 722.547455 246.423165 
L 722.547455 246.423165 
L 729.344482 233.859923 
L 735.068375 232.357143 
L 740.036392 232.357143 
L 740.036392 232.357143 
L 749.961823 229.672176 
L 751.264557 221.44195 
L 751.591339 217.255455 
L 751.591339 217.255455 
L 788.288452 217.255455 
L 788.288452 217.255455 
L 839.790176 216.079529 
L 844.046799 214.903604 
L 881.130081 214.903604 
L 913.396988 202.655946 
L 975.15242 210.886172 
L 993.033615 203.347225 
L 1010.8349 203.347225 
L 1014.380188 201.865734 
L 1054.604752 201.865734 
L 1054.604752 201.865734 
L 1064.511749 193.635509 
L 1066.996231 193.243533 
L 1070.584305 188.219239 
L 1075.199524 188.008849 
L 1100.48378 188.008849 
L 1100.48378 188.008849 
L 1103.12471 184.013959 
L 1107.937225 183.847401 
L 1110.00351 173.091252 
L 1110.601089 173.091252 
L 1115.497559 172.644175 
L 1124.283447 172.644175 
L 1124.283447 172.644175 
L 1144.833603 169.810182 
L 1148.880356 169.691212 
L 1149.65593 165.503465 
L 1149.65593 165.503465 
L 1152.589172 165.378233 
L 1152.938828 161.190486 
L 1152.938828 161.190486 
L 1157.130676 161.016414 
L 1170.875183 161.016414 
L 1183.588821 160.390255 
L 1187.088333 156.202508 
L 1187.088333 156.202508 
L 1188.853149 156.202508 
L 1190.758957 156.002138 
L 1192.964615 156.002138 
L 1194.29187 152.026032 
L 1196.904083 152.026032 
L 1198.349823 151.810633 
L 1201.087402 151.810633 
L 1204.147308 146.954149 
L 1204.732086 146.954149 
L 1205.927872 137.356393 
L 1206.216751 137.356393 
L 1206.216751 137.356393 
L 1206.696426 136.754029 
L 1207.397537 136.754029 
L 1210.106003 132.746615 
L 1210.333908 128.56012 
L 1210.333908 128.56012 
L 1210.966888 113.698877 
L 1214.944946 112.904909 
L 1215.859955 113.68385 
L 1215.859955 113.68385 
L 1218.682571 113.68385 
L 1218.683212 108.983905 
L 1218.683212 108.983905 
L 1223.186905 108.654545 
L 1225.409836 110.328893 
L 1225.409836 110.328893 
L 1232.992188 110.328893 
L 1243.686737 111.166693 
L 1243.686737 111.166693 
L 1245.271149 238.661305 
L 1245.271149 238.661305 
L 1245.272736 553.745455 
L 1245.272736 553.745455 
" style="fill:none;stroke:#0000ff;stroke-linecap:square;stroke-width:1.5;"/>
   </g>
   <g id="patch_8">
    <path d="M 180 576 
L 180 86.4 
" style="fill:none;stroke:#000000;stroke-linecap:square;stroke-linejoin:miter;stroke-width:0.8;"/>
   </g>
   <g id="patch_9">
    <path d="M 1296 576 
L 1296 86.4 
" style="fill:none;stroke:#000000;stroke-linecap:square;stroke-linejoin:miter;stroke-width:0.8;"/>
   </g>
   <g id="patch_10">
    <path d="M 180.000015 576 
L 1296.000015 576 
" style="fill:none;stroke:#000000;stroke-linecap:square;stroke-linejoin:miter;stroke-width:0.8;"/>
   </g>
   <g id="patch_11">
    <path d="M 180.000015 86.4 
L 1296.000015 86.4 
" style="fill:none;stroke:#000000;stroke-linecap:square;stroke-linejoin:miter;stroke-width:0.8;"/>
   </g>
   <g id="text_31">
    <!-- XASX:A2M, 2020-06-01 -->
    <g transform="translate(668.063437 80.4)scale(0.12 -0.12)">
     <defs>
      <path d="M 6.296875 72.90625 
L 16.890625 72.90625 
L 35.015625 45.796875 
L 53.21875 72.90625 
L 63.8125 72.90625 
L 40.375 37.890625 
L 65.375 0 
L 54.78125 0 
L 34.28125 31 
L 13.625 0 
L 2.984375 0 
L 29 38.921875 
z
" id="DejaVuSans-88"/>
      <path d="M 53.515625 70.515625 
L 53.515625 60.890625 
Q 47.90625 63.578125 42.921875 64.890625 
Q 37.9375 66.21875 33.296875 66.21875 
Q 25.25 66.21875 20.875 63.09375 
Q 16.5 59.96875 16.5 54.203125 
Q 16.5 49.359375 19.40625 46.890625 
Q 22.3125 44.4375 30.421875 42.921875 
L 36.375 41.703125 
Q 47.40625 39.59375 52.65625 34.296875 
Q 57.90625 29 57.90625 20.125 
Q 57.90625 9.515625 50.796875 4.046875 
Q 43.703125 -1.421875 29.984375 -1.421875 
Q 24.8125 -1.421875 18.96875 -0.25 
Q 13.140625 0.921875 6.890625 3.21875 
L 6.890625 13.375 
Q 12.890625 10.015625 18.65625 8.296875 
Q 24.421875 6.59375 29.984375 6.59375 
Q 38.421875 6.59375 43.015625 9.90625 
Q 47.609375 13.234375 47.609375 19.390625 
Q 47.609375 24.75 44.3125 27.78125 
Q 41.015625 30.8125 33.5 32.328125 
L 27.484375 33.5 
Q 16.453125 35.6875 11.515625 40.375 
Q 6.59375 45.0625 6.59375 53.421875 
Q 6.59375 63.09375 13.40625 68.65625 
Q 20.21875 74.21875 32.171875 74.21875 
Q 37.3125 74.21875 42.625 73.28125 
Q 47.953125 72.359375 53.515625 70.515625 
z
" id="DejaVuSans-83"/>
      <path d="M 9.8125 72.90625 
L 24.515625 72.90625 
L 43.109375 23.296875 
L 61.8125 72.90625 
L 76.515625 72.90625 
L 76.515625 0 
L 66.890625 0 
L 66.890625 64.015625 
L 48.09375 14.015625 
L 38.1875 14.015625 
L 19.390625 64.015625 
L 19.390625 0 
L 9.8125 0 
z
" id="DejaVuSans-77"/>
      <path d="M 11.71875 12.40625 
L 22.015625 12.40625 
L 22.015625 4 
L 14.015625 -11.625 
L 7.71875 -11.625 
L 11.71875 4 
z
" id="DejaVuSans-44"/>
      <path d="M 4.890625 31.390625 
L 31.203125 31.390625 
L 31.203125 23.390625 
L 4.890625 23.390625 
z
" id="DejaVuSans-45"/>
     </defs>
     <use xlink:href="#DejaVuSans-88"/>
     <use x="68.505859" xlink:href="#DejaVuSans-65"/>
     <use x="136.914062" xlink:href="#DejaVuSans-83"/>
     <use x="200.390625" xlink:href="#DejaVuSans-88"/>
     <use x="268.896484" xlink:href="#DejaVuSans-58"/>
     <use x="302.587891" xlink:href="#DejaVuSans-65"/>
     <use x="370.996094" xlink:href="#DejaVuSans-50"/>
     <use x="434.619141" xlink:href="#DejaVuSans-77"/>
     <use x="520.898438" xlink:href="#DejaVuSans-44"/>
     <use x="552.685547" xlink:href="#DejaVuSans-32"/>
     <use x="584.472656" xlink:href="#DejaVuSans-50"/>
     <use x="648.095703" xlink:href="#DejaVuSans-48"/>
     <use x="711.71875" xlink:href="#DejaVuSans-50"/>
     <use x="775.341797" xlink:href="#DejaVuSans-48"/>
     <use x="838.964844" xlink:href="#DejaVuSans-45"/>
     <use x="875.048828" xlink:href="#DejaVuSans-48"/>
     <use x="938.671875" xlink:href="#DejaVuSans-54"/>
     <use x="1002.294922" xlink:href="#DejaVuSans-45"/>
     <use x="1038.378906" xlink:href="#DejaVuSans-48"/>
     <use x="1102.001953" xlink:href="#DejaVuSans-49"/>
    </g>
   </g>
   <g id="legend_2">
    <g id="patch_12">
     <path d="M 1358.8 84.598125 
L 1465.610937 84.598125 
Q 1467.610937 84.598125 1467.610937 82.598125 
L 1467.610937 68.92 
Q 1467.610937 66.92 1465.610937 66.92 
L 1358.8 66.92 
Q 1356.8 66.92 1356.8 68.92 
L 1356.8 82.598125 
Q 1356.8 84.598125 1358.8 84.598125 
z
" style="fill:#ffffff;opacity:0.8;stroke:#cccccc;stroke-linejoin:miter;"/>
    </g>
    <g id="line2d_52">
     <path d="M 1360.8 75.018437 
L 1380.8 75.018437 
" style="fill:none;stroke:#0000ff;stroke-linecap:square;stroke-width:1.5;"/>
    </g>
    <g id="line2d_53"/>
    <g id="text_32">
     <!-- Predict Volume -->
     <g transform="translate(1388.8 78.518437)scale(0.1 -0.1)">
      <defs>
       <path d="M 28.609375 0 
L 0.78125 72.90625 
L 11.078125 72.90625 
L 34.1875 11.53125 
L 57.328125 72.90625 
L 67.578125 72.90625 
L 39.796875 0 
z
" id="DejaVuSans-86"/>
       <path d="M 30.609375 48.390625 
Q 23.390625 48.390625 19.1875 42.75 
Q 14.984375 37.109375 14.984375 27.296875 
Q 14.984375 17.484375 19.15625 11.84375 
Q 23.34375 6.203125 30.609375 6.203125 
Q 37.796875 6.203125 41.984375 11.859375 
Q 46.1875 17.53125 46.1875 27.296875 
Q 46.1875 37.015625 41.984375 42.703125 
Q 37.796875 48.390625 30.609375 48.390625 
z
M 30.609375 56 
Q 42.328125 56 49.015625 48.375 
Q 55.71875 40.765625 55.71875 27.296875 
Q 55.71875 13.875 49.015625 6.21875 
Q 42.328125 -1.421875 30.609375 -1.421875 
Q 18.84375 -1.421875 12.171875 6.21875 
Q 5.515625 13.875 5.515625 27.296875 
Q 5.515625 40.765625 12.171875 48.375 
Q 18.84375 56 30.609375 56 
z
" id="DejaVuSans-111"/>
       <path d="M 8.5 21.578125 
L 8.5 54.6875 
L 17.484375 54.6875 
L 17.484375 21.921875 
Q 17.484375 14.15625 20.5 10.265625 
Q 23.53125 6.390625 29.59375 6.390625 
Q 36.859375 6.390625 41.078125 11.03125 
Q 45.3125 15.671875 45.3125 23.6875 
L 45.3125 54.6875 
L 54.296875 54.6875 
L 54.296875 0 
L 45.3125 0 
L 45.3125 8.40625 
Q 42.046875 3.421875 37.71875 1 
Q 33.40625 -1.421875 27.6875 -1.421875 
Q 18.265625 -1.421875 13.375 4.4375 
Q 8.5 10.296875 8.5 21.578125 
z
M 31.109375 56 
z
" id="DejaVuSans-117"/>
      </defs>
      <use xlink:href="#DejaVuSans-80"/>
      <use x="58.552734" xlink:href="#DejaVuSans-114"/>
      <use x="97.416016" xlink:href="#DejaVuSans-101"/>
      <use x="158.939453" xlink:href="#DejaVuSans-100"/>
      <use x="222.416016" xlink:href="#DejaVuSans-105"/>
      <use x="250.199219" xlink:href="#DejaVuSans-99"/>
      <use x="305.179688" xlink:href="#DejaVuSans-116"/>
      <use x="344.388672" xlink:href="#DejaVuSans-32"/>
      <use x="376.175781" xlink:href="#DejaVuSans-86"/>
      <use x="436.833984" xlink:href="#DejaVuSans-111"/>
      <use x="498.015625" xlink:href="#DejaVuSans-108"/>
      <use x="525.798828" xlink:href="#DejaVuSans-117"/>
      <use x="589.177734" xlink:href="#DejaVuSans-109"/>
      <use x="686.589844" xlink:href="#DejaVuSans-101"/>
     </g>
    </g>
   </g>
  </g>
 </g>
 <defs>
  <clipPath id="p304fed63f3">
   <rect height="489.6" width="1116" x="180" y="86.4"/>
  </clipPath>
 </defs>
</svg>
